<?xml version="1.0" encoding="utf-8" standalone="no"?>
<svg
    xmlns="http://www.w3.org/2000/svg"
    xmlns:bx="https://boxy-svg.com"
    xmlns:cc="http://creativecommons.org/ns#"
    xmlns:dc="http://purl.org/dc/elements/1.1/"
    xmlns:inkscape="http://www.inkscape.org/namespaces/inkscape"
    xmlns:rdf="http://www.w3.org/1999/02/22-rdf-syntax-ns#"
    xmlns:sodipodi="http://sodipodi.sourceforge.net/DTD/sodipodi-0.dtd"
    width="60"
    height="60"
    viewBox="0 0 60 60"
    style="shape-rendering: auto">

    <metadata>
        <rdf:RDF>
            <cc:Work>
                <dc:format>image/svg+xml</dc:format>
                <dc:type rdf:resource="http://purl.org/dc/dcmitype/StillImage"/>
                <dc:rights><cc:Agent><dc:title>Copyright © 2017—2023 Maxim Rysevets. All rights reserved.</dc:title></cc:Agent></dc:rights>
                <dc:creator><cc:Agent><dc:title>Maxim Rysevets</dc:title></cc:Agent></dc:creator>
            </cc:Work>
        </rdf:RDF>
    </metadata>

    <sodipodi:namedview>
        <sodipodi:guide position="0,0"  orientation="0,1"/>
        <sodipodi:guide position="0,30" orientation="0,1"/>
        <sodipodi:guide position="0,60" orientation="0,1"/>
        <sodipodi:guide position="0,0"  orientation="1,0"/>
        <sodipodi:guide position="30,0" orientation="1,0"/>
        <sodipodi:guide position="60,0" orientation="1,0"/>
    </sodipodi:namedview>

    <defs>
        <bx:guide x="0"  y="0"  angle="90"/>
        <bx:guide x="0"  y="30" angle="90"/>
        <bx:guide x="0"  y="60" angle="90"/>
        <bx:guide x="0"  y="0"  angle="0"/>
        <bx:guide x="30" y="0"  angle="0"/>
        <bx:guide x="60" y="0"  angle="0"/>
    </defs>

    <g id="icon_gallery_audio">
        <rect x="0" y="0" width="60" height="60" style="fill: white"/>
        <path transform="matrix(1.289775, 0, 0, 1.289775, 17.132008, -24.387968)" style="fill: black; stroke: none" d="M 10.449 24.336 L 10.449 52.195 C 9.054 51.009 6.499 50.91 4.119 51.951 C 1.084 53.282 -0.658 56.002 0.23 58.025 C 1.117 60.049 4.297 60.61 7.332 59.279 C 9.77 58.209 11.445 56.196 11.447 54.336 L 11.449 54.336 L 11.449 33.711 C 16.73 35.715 20.687 40.076 17.575 47.964 C 17.212 48.419 17.957 48.714 18.149 48.4 C 20.374 44.71 20.366 40.521 19.088 37.845 C 17.615 34.64 12.429 30.464 11.449 24.336 L 10.449 24.336 Z"/>
    </g>

</svg>