<?xml version="1.0" encoding="utf-8"?>
<svg
    xmlns="http://www.w3.org/2000/svg"
    width="80"
    height="80"
    viewBox="0 0 76 76"
    style="shape-rendering: auto">

    <g id="logo_blogger">
        <path style="fill: black" d="M 37.796 0.002 C 23.699 0.014 9.613 0.094 8.997 0.231 C 4.707 1.184 1.38 4.378 0.306 8.576 C 0.002 9.763 -0.004 10.371 0.001 37.992 C 0.007 65.753 0.012 66.213 0.322 67.37 C 0.626 68.504 1.372 70.138 2.02 71.092 C 2.551 71.875 3.948 73.221 4.904 73.872 C 6.035 74.644 7.263 75.193 8.684 75.567 C 9.728 75.842 11.102 75.856 37.87 75.864 C 65.554 75.873 65.978 75.868 67.197 75.556 C 71.964 74.339 75.277 70.615 75.863 65.812 C 75.988 64.785 76.023 56.548 75.986 36.925 C 75.926 6.086 76.042 8.943 74.739 6.347 C 73.101 3.079 70.27 0.917 66.667 0.181 C 66.002 0.046 51.893 -0.011 37.796 0.002 Z M 32.717 14.43 C 33.464 14.432 34.286 14.44 35.196 14.451 C 39.838 14.505 41.225 14.57 41.845 14.757 C 44.43 15.543 46.696 16.942 48.727 19.012 C 51.577 21.917 53.02 25.136 53.026 28.603 C 53.029 30.417 53.319 31.086 54.375 31.705 C 55.041 32.095 55.277 32.136 57.387 32.229 C 58.646 32.285 59.826 32.413 60.01 32.513 C 60.61 32.839 61.134 33.62 61.319 34.461 C 61.447 35.041 61.483 37.339 61.44 42.244 C 61.384 48.744 61.357 49.282 61.049 50.389 C 60.306 53.054 59.169 55.062 57.353 56.918 C 54.843 59.481 52.169 60.85 48.755 61.316 C 46.791 61.584 27.623 61.514 26.069 61.233 C 22.804 60.643 19.538 58.555 17.36 55.663 C 16.216 54.145 15.66 53.075 15.11 51.33 C 14.444 49.218 14.371 47.652 14.437 36.994 C 14.49 28.486 14.535 27.006 14.76 26.081 C 15.958 21.161 19.243 17.322 23.815 15.502 C 25.986 14.636 27.494 14.415 32.717 14.43 Z M 33.673 26.915 C 28.541 26.915 28.314 26.947 27.494 27.774 C 26.211 29.069 26.863 31.574 28.608 32.056 C 28.939 32.147 31.159 32.199 33.948 32.183 C 38.462 32.156 38.747 32.138 39.225 31.835 C 40.115 31.271 40.514 30.568 40.514 29.566 C 40.514 28.458 40.09 27.761 39.111 27.267 C 38.434 26.925 38.28 26.915 33.673 26.915 Z M 37.9 43.815 C 28.753 43.822 28.426 43.844 27.683 44.517 C 27.092 45.052 26.708 46.104 26.822 46.87 C 26.942 47.675 27.641 48.582 28.39 48.908 C 28.762 49.07 30.786 49.201 37.934 49.117 L 46.068 49.022 L 47.628 48.768 C 49.146 47.907 49.413 45.813 48.153 44.636 C 47.261 43.803 47.309 43.807 37.9 43.815 Z"/>
    </g>

</svg>