<?xml version="1.0" encoding="utf-8"?>
<svg
    xmlns="http://www.w3.org/2000/svg"
    width="80"
    height="80"
    viewBox="0 0 76 76"
    style="shape-rendering: auto">

    <g id="logo_flickr" transform="matrix(1, 0, 0, 1, 0, 21.1085)">
        <path style="fill: black" d="M 16.892 0 C 7.563 0 0 7.563 0 16.892 C 0 26.22 7.563 33.783 16.892 33.783 C 26.22 33.783 33.783 26.22 33.783 16.892 C 33.783 7.563 26.22 0 16.892 0 Z M 59.108 0 C 49.78 0 42.217 7.563 42.217 16.892 C 42.217 26.22 49.78 33.783 59.108 33.783 C 68.437 33.783 76 26.22 76 16.892 C 76 7.563 68.437 0 59.108 0 Z"/>
    </g>

</svg>