<?xml version="1.0" encoding="utf-8"?>
<svg
    xmlns="http://www.w3.org/2000/svg"
    width="80"
    height="80"
    viewBox="0 0 76 76"
    style="shape-rendering: auto">

    <g id="logo_github">
        <path style="fill: black" d="M 37.996 0 C 17.015 0 0 17.013 0 38 C 0 54.789 10.888 69.031 25.987 74.057 C 27.888 74.406 28.581 73.232 28.581 72.224 C 28.581 71.325 28.548 68.933 28.53 65.763 C 17.961 68.059 15.73 60.668 15.73 60.668 C 14.002 56.277 11.51 55.109 11.51 55.109 C 8.06 52.752 11.771 52.799 11.771 52.799 C 15.585 53.07 17.592 56.716 17.592 56.716 C 20.98 62.523 26.488 60.845 28.65 59.873 C 28.996 57.418 29.979 55.744 31.062 54.795 C 22.625 53.835 13.754 50.575 13.754 36.012 C 13.754 31.865 15.235 28.471 17.667 25.816 C 17.275 24.855 15.969 20.989 18.039 15.76 C 18.039 15.76 21.229 14.737 28.488 19.654 C 31.518 18.812 34.771 18.391 38.002 18.375 C 41.229 18.391 44.48 18.812 47.514 19.654 C 54.769 14.737 57.953 15.76 57.953 15.76 C 60.029 20.989 58.723 24.855 58.333 25.816 C 60.769 28.471 62.24 31.865 62.24 36.012 C 62.24 50.612 53.354 53.825 44.889 54.763 C 46.252 55.938 47.468 58.257 47.468 61.802 C 47.468 66.88 47.421 70.979 47.421 72.224 C 47.421 73.242 48.108 74.425 50.033 74.055 C 65.123 69.018 76 54.785 76 38 C 76 17.013 58.985 0 37.996 0"/>
    </g>

</svg>