<?xml version="1.0" encoding="utf-8"?>
<svg
    xmlns="http://www.w3.org/2000/svg"
    width="80"
    height="80"
    viewBox="0 0 76 76"
    style="shape-rendering: auto">

    <g id="logo_line">
        <path style="fill: black" d="M 16.466 0 C 7.372 0 0 7.372 0 16.466 L 0 59.533 C 0 68.627 7.372 76 16.466 76 L 59.533 76 C 68.627 76 76 68.627 76 59.533 L 76 16.466 C 76 7.372 68.627 0 59.533 0 L 16.466 0 Z M 37.876 12.202 C 53.135 12.202 65.547 22.276 65.547 34.657 C 65.547 39.613 63.627 44.076 59.617 48.474 L 59.618 48.474 C 53.812 55.156 40.83 63.294 37.876 64.539 C 34.924 65.783 35.359 63.747 35.48 63.048 C 35.55 62.631 35.874 60.678 35.874 60.678 C 35.967 59.972 36.065 58.876 35.785 58.176 C 35.476 57.406 34.248 57.007 33.347 56.813 C 20.05 55.055 10.206 45.758 10.206 34.657 C 10.206 22.276 22.62 12.202 37.876 12.202 Z M 19.822 28.674 C 19.525 28.674 19.283 28.916 19.283 29.213 L 19.283 41.268 L 19.283 41.269 C 19.278 41.504 19.495 41.821 19.821 41.808 L 19.822 41.808 L 27.576 41.808 C 27.873 41.808 28.114 41.566 28.114 41.268 L 28.114 39.328 C 28.114 39.03 27.873 38.789 27.576 38.789 L 22.302 38.789 L 22.302 29.213 C 22.302 28.916 22.061 28.674 21.764 28.674 L 19.822 28.674 Z M 30.314 28.674 C 30.016 28.674 29.774 28.915 29.774 29.212 L 29.774 41.269 C 29.774 41.566 30.016 41.807 30.314 41.807 L 32.254 41.807 C 32.552 41.807 32.793 41.566 32.793 41.269 L 32.793 29.212 C 32.793 28.915 32.552 28.674 32.254 28.674 L 30.314 28.674 Z M 35.219 28.674 C 34.922 28.674 34.68 28.915 34.68 29.212 L 34.68 41.269 C 34.68 41.566 34.922 41.807 35.219 41.807 L 37.16 41.807 C 37.458 41.807 37.699 41.566 37.699 41.269 L 37.699 34.109 L 43.231 41.58 C 43.347 41.711 43.473 41.813 43.674 41.807 L 45.614 41.807 C 45.911 41.807 46.153 41.566 46.153 41.269 L 46.153 29.212 C 46.153 28.915 45.911 28.674 45.614 28.674 L 43.674 28.674 C 43.376 28.674 43.135 28.915 43.135 29.212 L 43.135 36.376 L 37.608 28.914 C 37.438 28.748 37.323 28.7 37.16 28.674 L 35.219 28.674 Z M 48.578 28.674 C 48.279 28.674 48.041 28.889 48.04 29.212 L 48.04 29.213 L 48.04 41.268 L 48.04 41.269 C 48.051 41.561 48.235 41.788 48.578 41.808 L 56.333 41.808 C 56.63 41.808 56.871 41.566 56.871 41.268 L 56.871 39.328 C 56.871 39.03 56.63 38.789 56.333 38.789 L 51.059 38.789 L 51.059 36.75 L 56.333 36.75 C 56.63 36.75 56.871 36.51 56.871 36.211 L 56.871 34.271 C 56.871 33.973 56.63 33.731 56.333 33.731 L 51.059 33.731 L 51.059 31.693 L 56.333 31.693 C 56.63 31.693 56.871 31.453 56.871 31.155 L 56.871 29.213 C 56.871 28.916 56.63 28.674 56.333 28.674 L 48.579 28.674 L 48.578 28.674 Z"/>
    </g>

</svg>