<?xml version="1.0" encoding="utf-8"?>
<svg
    xmlns="http://www.w3.org/2000/svg"
    width="80"
    height="80"
    viewBox="0 0 76 76"
    style="shape-rendering: auto">

    <g id="logo_linkedin">
        <path style="fill: black" d="M 5.538 0 C 2.47 0 0 2.47 0 5.538 L 0 70.327 C 0 73.395 2.47 75.864 5.538 75.864 L 70.462 75.864 C 73.53 75.864 76 73.395 76 70.327 L 76 5.538 C 76 2.47 73.53 0 70.462 0 Z M 16.922 10.394 C 20.532 10.394 23.46 13.322 23.46 16.932 C 23.46 20.543 20.532 23.47 16.922 23.47 C 13.311 23.47 10.384 20.543 10.384 16.932 C 10.384 13.322 13.311 10.394 16.922 10.394 Z M 51.046 27.502 C 59.63 27.502 64.66 30.954 64.66 44.365 L 64.66 64.647 L 53.454 64.647 L 53.454 45.068 C 53.028 41.48 52.883 37.439 47.579 37.439 C 43.917 37.439 41.169 38.976 40.834 45.068 L 40.834 64.647 L 29.636 64.647 L 29.636 28.482 L 40.397 28.482 L 40.397 33.367 L 40.609 33.367 C 43.524 28.482 48.221 27.502 51.046 27.502 Z M 11.326 28.482 L 22.518 28.482 L 22.518 64.647 L 11.326 64.647 Z"/>
    </g>

</svg>