<?xml version="1.0" encoding="utf-8"?>
<svg
    xmlns="http://www.w3.org/2000/svg"
    width="80"
    height="80"
    viewBox="0 0 76 76"
    style="shape-rendering: auto">

    <g id="logo_livejournal">
        <path style="fill: black" d="M 18.352 0.001 C 18.249 0.006 18.146 0.037 18.052 0.095 C 10.792 4.584 4.582 10.793 0.094 18.052 C -0.06 18.3 -0.022 18.62 0.184 18.827 L 7.333 25.974 C 5.195 30.667 4.106 35.667 4.106 40.846 C 4.106 60.667 20.235 76.791 40.055 76.791 C 59.875 76.791 76 60.667 76 40.846 C 76 21.026 59.874 4.902 40.055 4.902 C 35.288 4.902 30.658 5.826 26.284 7.642 L 18.827 0.184 C 18.698 0.055 18.526 -0.008 18.352 0.001 Z M 26.654 9.783 L 54.469 37.597 L 59.044 59.329 L 37.606 54.46 L 9.791 26.644 C 16.634 16.511 21.422 13.966 26.654 9.783 Z M 53.319 38.747 C 48.788 42.369 44.673 44.543 38.748 53.318 L 47.459 55.306 C 50.335 51.681 52.799 49.552 55.193 47.695 Z"/>
    </g>

</svg>