<?xml version="1.0" encoding="utf-8"?>
<svg
    xmlns="http://www.w3.org/2000/svg"
    width="80"
    height="80"
    viewBox="0 0 76 76"
    style="shape-rendering: auto">

    <g id="logo_pinterest">
        <path style="fill: black" d="M 38 0 C 17.013 0 0 17.015 0 38.001 C 0 54.101 10.016 67.852 24.153 73.387 C 23.82 70.383 23.519 65.77 24.283 62.486 C 24.974 59.522 28.74 43.598 28.74 43.598 C 28.74 43.598 27.602 41.322 27.602 37.956 C 27.602 32.672 30.665 28.725 34.478 28.725 C 37.721 28.725 39.287 31.162 39.287 34.08 C 39.287 37.342 37.21 42.213 36.139 46.734 C 35.243 50.517 38.037 53.602 41.767 53.602 C 48.52 53.602 53.712 46.481 53.712 36.196 C 53.712 27.098 47.174 20.738 37.839 20.738 C 27.027 20.738 20.681 28.849 20.681 37.229 C 20.681 40.495 21.939 43.996 23.51 45.902 C 23.82 46.28 23.864 46.608 23.773 46.988 C 23.484 48.191 22.842 50.771 22.717 51.301 C 22.55 51.995 22.165 52.144 21.446 51.808 C 16.698 49.601 13.732 42.662 13.732 37.086 C 13.732 25.098 22.442 14.094 38.841 14.094 C 52.024 14.094 62.269 23.486 62.269 36.038 C 62.269 49.134 54.009 59.673 42.549 59.673 C 38.698 59.673 35.078 57.674 33.84 55.31 C 33.84 55.31 31.933 62.566 31.472 64.345 C 30.615 67.649 28.298 71.783 26.749 74.31 C 30.303 75.409 34.082 76.003 38 76.003 C 58.986 76.003 76 58.988 76 38.001 C 76 17.015 58.986 0 38 0"/>
    </g>

</svg>