<?xml version="1.0" encoding="utf-8"?>
<svg
    xmlns="http://www.w3.org/2000/svg"
    width="80"
    height="80"
    viewBox="0 0 76 76"
    style="shape-rendering: auto">

    <g id="logo_snapchat" transform="matrix(1, 0, 0, 1, 0, 0.606)">
        <path style="fill: black" d="M 75.73 54.731 C 75.213 53.288 74.195 52.512 73.055 51.905 C 72.843 51.784 71.779 51.252 71.43 51.084 C 67.859 49.185 65.063 46.815 63.149 43.989 C 62.601 43.198 62.115 42.332 61.735 41.466 C 61.297 40.647 61.601 40.327 62.161 39.992 C 62.801 39.609 65.215 38.002 65.595 37.728 C 67.053 36.695 68.072 35.616 68.725 34.386 C 69.637 32.684 69.758 30.678 69.059 28.87 C 68.087 26.302 65.686 24.737 62.753 24.737 C 62.131 24.737 60.58 25.01 60.429 25.056 C 60.444 23.308 60.413 21.47 60.261 19.646 C 59.714 13.265 57.466 9.922 55.141 7.263 C 53.652 5.591 51.904 4.178 49.944 3.069 C 46.358 1.033 42.347 0 37.986 0 C 33.625 0 29.629 1.033 26.089 3.054 C 24.129 4.163 22.381 5.576 20.892 7.248 C 18.552 9.907 16.318 13.25 15.756 19.616 C 15.604 21.439 15.558 23.278 15.589 25.026 C 14.883 24.86 13.887 24.706 13.279 24.706 C 10.347 24.706 7.946 26.302 6.974 28.839 C 6.274 30.647 6.396 32.638 7.308 34.355 C 7.946 35.57 8.979 36.665 10.438 37.698 C 10.833 37.971 11.425 38.351 12.201 38.868 C 12.611 39.141 13.787 39.707 14.328 40.433 C 14.761 41.089 13.416 43.153 12.869 43.928 C 10.985 46.678 8.265 49.033 4.816 50.917 C 2.993 51.89 1.093 52.528 0.272 54.716 C -0.335 56.372 0.06 58.226 1.594 59.821 C 2.157 60.399 2.81 60.916 3.54 61.295 C 5.029 62.116 6.624 62.754 8.295 63.195 C 8.645 63.286 8.949 63.423 9.253 63.62 C 9.815 64.107 9.739 64.836 10.468 65.93 C 10.833 66.492 11.319 66.978 11.867 67.373 C 13.431 68.467 15.209 68.513 17.063 68.589 C 18.749 68.649 20.649 68.726 22.852 69.439 C 23.764 69.729 24.69 70.306 25.785 70.989 C 28.398 72.6 31.969 74.788 37.971 74.788 C 43.973 74.788 47.559 72.57 50.203 70.959 C 51.297 70.306 52.224 69.713 53.089 69.425 C 55.262 68.71 57.177 68.634 58.879 68.574 C 60.748 68.498 62.511 68.437 64.075 67.358 C 64.729 66.887 65.276 66.309 65.671 65.611 C 66.218 64.699 66.187 64.061 66.704 63.605 C 66.978 63.408 67.282 63.271 67.601 63.195 C 69.272 62.754 70.898 62.101 72.417 61.28 C 73.177 60.87 73.876 60.323 74.454 59.685 L 74.469 59.669 C 75.958 58.15 76.322 56.326 75.73 54.731 M 70.412 57.588 C 67.175 59.381 65.003 59.183 63.331 60.262 C 61.887 61.174 62.753 63.149 61.72 63.878 C 60.444 64.745 56.676 63.817 51.829 65.429 C 47.817 66.75 45.264 70.564 38.047 70.564 C 30.829 70.564 28.337 66.766 24.265 65.429 C 19.418 63.817 15.65 64.775 14.373 63.878 C 13.34 63.164 14.176 61.174 12.763 60.262 C 11.076 59.168 8.918 59.366 5.682 57.588 C 3.6 56.448 4.785 55.749 5.469 55.415 C 17.23 49.732 19.114 40.934 19.19 40.281 C 19.281 39.491 19.403 38.868 18.536 38.062 C 17.701 37.288 13.978 34.978 12.93 34.264 C 11.228 33.063 10.468 31.879 11.031 30.404 C 11.425 29.402 12.542 28.562 14.282 29.097 C 16.167 29.508 17.99 30.435 19.038 30.708 C 19.419 30.853 20.193 30.48 20.148 29.842 C 20.026 27.791 19.737 23.794 20.071 20.042 C 20.512 14.906 22.168 12.338 24.144 10.089 C 25.101 8.995 29.538 4.3 38.062 4.3 C 46.587 4.3 51.023 8.98 51.98 10.059 C 53.956 12.307 55.612 14.875 56.052 20.011 C 56.387 23.764 56.185 27.768 55.961 29.812 C 55.885 30.503 56.422 30.845 57.07 30.678 C 58.119 30.419 59.949 29.506 61.827 29.068 C 62.994 28.796 64.698 29.371 65.078 30.374 C 65.641 31.848 64.881 33.033 63.179 34.233 C 62.146 34.948 58.423 37.257 57.572 38.032 C 56.706 38.822 56.812 39.445 56.919 40.25 C 56.995 40.904 58.879 49.702 70.64 55.384 C 71.308 55.719 72.463 56.433 70.412 57.588"/>
    </g>

</svg>