<?xml version="1.0" encoding="utf-8"?>
<svg
    xmlns="http://www.w3.org/2000/svg"
    width="80"
    height="80"
    viewBox="0 0 76 76"
    style="shape-rendering: auto">

    <g id="logo_soundcloud">
        <path style="fill: black" d="M 38 0 C 27.922 0 18.255 4.004 11.13 11.13 C 4.004 18.255 0 27.922 0 38 C 0 48.078 4.004 57.745 11.13 64.87 C 18.255 71.996 27.922 76 38 76 C 48.078 76 57.745 71.996 64.87 64.87 C 71.996 57.745 76 48.078 76 38 C 76 17.023 58.977 0 38 0 Z M 44.369 25.792 C 50.726 25.792 55.937 30.667 56.488 36.883 C 57.308 36.539 58.21 36.348 59.154 36.348 C 62.964 36.348 66.05 39.435 66.05 43.243 C 66.05 47.053 62.964 50.14 59.154 50.14 C 59.031 50.14 40.056 50.131 40.039 50.129 C 39.626 50.088 39.299 49.737 39.294 49.315 L 39.294 27.427 C 39.299 27.025 39.437 26.818 39.958 26.616 C 41.297 26.099 42.814 25.792 44.369 25.792 Z M 37.884 27.407 C 38.298 27.407 38.637 27.748 38.642 28.164 L 38.981 43.701 L 38.642 49.338 L 38.642 49.332 C 38.637 49.75 38.298 50.089 37.884 50.089 C 37.47 50.089 37.13 49.75 37.125 49.337 L 36.813 43.701 L 37.124 28.166 C 37.13 27.748 37.47 27.407 37.884 27.407 Z M 35.529 28.748 C 35.915 28.748 36.234 29.065 36.241 29.454 L 36.541 43.7 L 36.241 49.416 C 36.234 49.808 35.915 50.125 35.529 50.125 C 35.144 50.125 34.823 49.808 34.818 49.421 C 34.818 49.421 34.549 43.704 34.549 43.695 L 34.818 29.455 C 34.823 29.065 35.144 28.748 35.529 28.748 Z M 28.488 30.383 C 28.797 30.383 29.046 30.631 29.057 30.948 L 29.453 43.696 L 29.057 49.546 L 29.057 49.547 C 29.045 49.86 28.797 50.109 28.488 50.109 C 28.179 50.109 27.928 49.86 27.921 49.548 L 27.566 43.696 L 27.92 30.948 C 27.928 30.631 28.179 30.383 28.488 30.383 Z M 30.817 30.662 C 31.153 30.662 31.424 30.931 31.433 31.274 L 31.799 43.697 L 31.433 49.494 L 31.433 49.489 C 31.424 49.832 31.153 50.103 30.817 50.103 C 30.48 50.103 30.209 49.832 30.203 49.492 L 29.875 43.697 L 30.202 31.274 C 30.209 30.931 30.48 30.662 30.817 30.662 Z M 26.178 30.846 C 26.457 30.846 26.686 31.073 26.698 31.362 L 27.129 43.695 L 26.698 49.58 C 26.686 49.87 26.457 50.096 26.178 50.096 C 25.895 50.096 25.667 49.87 25.658 49.583 L 25.276 43.695 C 25.276 43.695 25.658 31.363 25.658 31.363 C 25.667 31.074 25.895 30.846 26.178 30.846 Z M 33.165 31.068 C 33.528 31.068 33.819 31.357 33.827 31.728 L 34.16 43.699 L 33.827 49.459 L 33.827 49.453 C 33.819 49.823 33.528 50.113 33.165 50.113 C 32.799 50.113 32.507 49.823 32.501 49.458 L 32.203 43.698 L 32.501 31.729 C 32.507 31.357 32.799 31.068 33.165 31.068 Z M 23.886 31.843 C 24.137 31.843 24.345 32.048 24.358 32.311 L 24.82 43.694 L 24.358 49.641 C 24.345 49.903 24.137 50.109 23.886 50.109 C 23.631 50.109 23.423 49.903 23.413 49.643 L 23.002 43.694 C 23.002 43.694 23.413 32.312 23.413 32.311 C 23.423 32.048 23.631 31.843 23.886 31.843 Z M 21.61 34.009 C 21.835 34.009 22.022 34.194 22.034 34.429 L 22.531 43.693 L 22.034 49.679 L 22.034 49.677 C 22.022 49.913 21.835 50.097 21.61 50.097 C 21.383 50.097 21.197 49.913 21.186 49.679 L 20.747 43.693 L 21.186 34.429 C 21.197 34.194 21.383 34.009 21.61 34.009 Z M 17.114 37.229 C 17.287 37.229 17.428 37.367 17.443 37.551 L 18.006 43.69 L 17.443 49.628 C 17.428 49.813 17.287 49.95 17.114 49.95 C 16.94 49.95 16.799 49.813 16.786 49.628 L 16.291 43.69 L 16.786 37.552 C 16.799 37.367 16.94 37.229 17.114 37.229 Z M 14.894 37.439 C 15.04 37.439 15.158 37.555 15.175 37.714 L 15.769 43.689 L 15.174 49.446 C 15.158 49.604 15.04 49.72 14.894 49.72 C 14.746 49.72 14.628 49.604 14.613 49.444 L 14.09 43.689 C 14.09 43.689 14.613 37.716 14.613 37.714 C 14.628 37.555 14.746 37.439 14.894 37.439 Z M 19.353 37.625 C 19.555 37.625 19.715 37.784 19.729 37.994 L 20.259 43.69 L 19.729 49.677 C 19.715 49.889 19.554 50.049 19.353 50.049 C 19.15 50.049 18.99 49.889 18.976 49.677 L 18.51 43.69 L 18.976 37.996 C 18.99 37.785 19.15 37.625 19.353 37.625 Z M 12.692 38.426 C 12.809 38.426 12.906 38.52 12.924 38.653 L 13.551 43.688 L 12.924 48.612 C 12.906 48.747 12.809 48.84 12.692 48.84 C 12.573 48.84 12.474 48.744 12.458 48.611 L 11.907 43.688 C 11.907 43.688 12.458 38.654 12.458 38.653 C 12.474 38.522 12.573 38.426 12.692 38.426 Z M 10.618 40.355 C 10.731 40.355 10.826 40.444 10.842 40.573 L 11.328 43.688 L 10.842 46.749 C 10.825 46.88 10.731 46.967 10.618 46.967 C 10.501 46.967 10.409 46.879 10.394 46.748 L 9.984 43.688 L 10.394 40.574 C 10.409 40.445 10.501 40.355 10.618 40.355 Z"/>
    </g>

</svg>