<?xml version="1.0" encoding="utf-8"?>
<svg
    xmlns="http://www.w3.org/2000/svg"
    width="80"
    height="80"
    viewBox="0 0 76 76"
    style="shape-rendering: auto">

    <g id="logo_tumblr">
        <path style="fill: black" d="M 15.168 0 C 6.823 0 0 6.823 0 15.168 L 0 60.831 C 0 69.176 6.823 76 15.168 76 L 60.832 76 C 69.177 76 76 69.176 76 60.831 L 76 15.168 C 76 6.823 69.177 0 60.832 0 Z M 34.483 13.699 L 41.989 13.699 L 41.989 25.928 L 50.701 25.928 L 50.701 34.85 L 41.989 34.85 L 41.989 47.238 C 41.989 50.965 43.877 52.224 46.817 52.224 L 51.068 52.224 L 51.068 61.672 L 43.039 61.672 C 35.849 61.672 30.441 57.946 30.441 49.075 L 30.441 34.85 L 23.881 34.85 L 23.881 27.136 C 31.072 25.245 34.116 19.052 34.483 13.699 Z"/>
    </g>

</svg>