<?xml version="1.0" encoding="utf-8"?>
<svg
    xmlns="http://www.w3.org/2000/svg"
    width="80"
    height="80"
    viewBox="0 0 76 76"
    style="shape-rendering: auto">

    <g id="logo_viber" transform="matrix(1, 0, 0, 1, 1.918755, 0)">
        <path style="fill: black" d="M 34.092 0.009 C 27.963 0.11 14.993 1.089 7.65 7.828 L 7.642 7.833 L 7.634 7.841 C 2.664 12.811 0.272 20.266 0.05 31.145 C -0.051 36.036 -0.204 43.087 1.923 49.589 C 4.031 56.034 8.473 61.93 17.308 64.495 L 17.298 71.892 C 17.32 73.528 18.087 75.555 19.42 75.885 C 21.939 76.507 23.493 74.486 24.868 72.923 C 26.708 70.86 28.92 68.39 30.265 66.835 C 36.722 67.361 42.287 66.967 46.248 66.423 C 52.148 65.493 58.802 63.783 63.185 60.425 C 66.911 57.417 70.398 52.391 71.427 43.989 C 73.565 26.544 71.025 13.553 63.991 7.434 L 63.987 7.432 L 63.983 7.428 C 62.602 6.156 55.092 0.132 37.48 0.049 C 37.418 0.046 36.135 -0.024 34.092 0.009 Z M 34.295 6.294 C 35.157 6.273 36.379 6.314 37.085 6.344 L 37.108 6.346 L 37.129 6.346 C 53.167 6.417 59.236 11.832 59.393 11.974 L 59.398 11.98 L 59.403 11.985 C 64.779 16.589 67.001 27.716 65.164 42.502 C 64.328 49.239 61.708 53.045 58.898 55.306 C 54.895 58.257 49.552 59.416 44.945 59.985 C 39.875 60.61 36.75 60.755 31.005 60.505 C 27.154 64.593 23.83 69.27 20.364 72.608 C 20.225 68.051 20.352 62.896 20.361 58.85 C 14.163 57.024 9.532 52.236 7.843 47.291 C 6.36 41.976 6.303 36.537 6.43 31.409 C 6.616 22.335 8.569 16.366 12.501 12.481 C 18.339 7.203 29.18 6.348 34.295 6.294 Z M 35.568 13.5 C 34.885 13.5 34.336 13.914 34.292 14.69 C 34.249 15.465 34.809 16.024 35.552 16.011 L 35.554 16.011 L 35.556 16.011 C 40.529 16.046 44.69 17.695 48.011 20.93 C 51.361 24.202 53.012 28.541 53.056 34.336 L 53.056 34.338 C 53.062 35.02 53.551 35.595 54.43 35.538 C 55.307 35.479 55.563 34.903 55.567 34.317 L 55.567 34.315 C 55.518 27.988 53.57 22.846 49.764 19.131 L 49.764 19.13 C 45.976 15.439 41.172 13.538 35.57 13.5 Z M 22.638 15.65 C 20.576 15.892 18.701 17.643 17.312 19.11 L 17.304 19.118 L 17.298 19.126 C 15.767 20.864 15.465 22.138 16.018 24.104 L 15.996 24.039 L 16.012 24.108 L 16.014 24.11 C 16.539 25.966 17.816 28.714 19.825 32.353 C 21.232 34.906 22.77 37.233 24.395 39.271 C 26.265 41.595 28.402 43.754 30.695 45.571 C 32.734 47.196 34.851 48.652 37.611 50.137 C 40.372 51.623 43.937 53.868 47.528 54.018 C 49.861 54.116 52.484 51.255 53.861 48.96 C 55.33 46.15 52.321 44.223 49.965 42.403 L 49.963 42.403 C 48.894 41.619 47.274 40.626 46.433 40.15 L 46.431 40.15 L 46.429 40.149 C 44.63 39.146 42.863 39.81 42.119 40.775 C 40.99 42.211 40.186 43.587 38.935 43.202 C 34.192 41.984 31.161 38.975 29.297 36.228 C 28.127 33.879 25.683 31.166 27.426 29.25 L 27.426 29.248 L 29.191 27.845 C 30.156 27.103 30.816 25.334 29.815 23.538 L 29.815 23.536 L 29.814 23.534 C 29.338 22.691 28.346 21.074 27.559 20.003 L 27.559 20.001 C 26.757 18.912 24.97 16.772 24.934 16.732 C 24.333 16.02 23.513 15.629 22.638 15.65 Z M 37.34 18.451 C 36.59 18.404 36.055 18.871 35.999 19.665 C 35.942 20.46 36.563 20.945 37.155 20.957 L 37.157 20.957 C 40.734 21.218 43.346 22.367 45.272 24.472 L 45.273 24.472 C 47.216 26.592 48.114 29.124 48.041 32.338 L 48.041 32.34 C 48.068 33.066 48.578 33.639 49.33 33.622 C 50.082 33.604 50.557 32.97 50.55 32.395 C 50.636 28.613 49.482 25.35 47.125 22.778 C 44.775 20.207 41.453 18.753 37.342 18.451 Z M 38.761 23.572 C 37.93 23.538 37.487 24.08 37.42 24.79 C 37.354 25.499 37.959 26.027 38.629 26.079 C 40.166 26.162 41.227 26.581 41.942 27.324 C 42.656 28.066 43.065 29.183 43.145 30.788 L 43.147 30.788 C 43.181 31.444 43.744 31.981 44.503 31.918 C 45.262 31.854 45.702 31.203 45.656 30.661 C 45.549 28.517 44.907 26.785 43.725 25.569 C 42.545 24.352 40.852 23.685 38.764 23.572 L 38.763 23.572 Z"/>
    </g>

</svg>