<?xml version="1.0" encoding="utf-8"?>
<svg
    xmlns="http://www.w3.org/2000/svg"
    width="80"
    height="80"
    viewBox="0 0 76 76"
    style="shape-rendering: auto">

    <g id="logo_vimeo" transform="matrix(1, 0, 0, 1, 0, 5.066853)">
        <path style="fill: black" d="M 75.963 15.239 C 75.625 22.651 70.457 32.8 60.463 45.682 C 50.131 59.138 41.388 65.866 34.237 65.866 C 29.809 65.866 26.057 61.77 22.997 53.574 C 20.951 46.061 18.907 38.55 16.862 31.037 C 14.588 22.846 12.149 18.746 9.541 18.746 C 8.972 18.746 6.983 19.943 3.577 22.331 L 0 17.716 C 3.752 14.414 7.452 11.113 11.092 7.807 C 16.095 3.475 19.849 1.198 22.352 0.967 C 28.267 0.398 31.907 4.45 33.274 13.12 C 34.75 22.476 35.772 28.295 36.346 30.573 C 38.051 38.336 39.927 42.211 41.977 42.211 C 43.568 42.211 45.957 39.694 49.142 34.659 C 52.325 29.623 54.03 25.792 54.261 23.16 C 54.713 18.815 53.009 16.637 49.142 16.637 C 47.322 16.637 45.447 17.057 43.518 17.886 C 47.253 5.628 54.389 -0.325 64.922 0.014 C 72.731 0.244 76.413 5.318 75.963 15.239"/>
    </g>

</svg>