<?xml version="1.0" encoding="utf-8"?>
<svg
    xmlns="http://www.w3.org/2000/svg"
    width="80"
    height="80"
    viewBox="0 0 76 76"
    style="shape-rendering: auto">

    <g id="logo_vk" transform="matrix(1, 0, 0, 1, 0, 15.3825)">
        <path style="fill: black" d="M 74.211 3.139 C 74.775 1.368 74.211 0.08 71.716 0.08 L 63.426 0.08 C 61.333 0.08 60.367 1.207 59.803 2.415 C 59.803 2.415 55.537 12.717 49.581 19.398 C 47.65 21.33 46.765 21.974 45.718 21.974 C 45.154 21.974 44.43 21.33 44.43 19.559 L 44.43 3.059 C 44.43 0.966 43.786 0 42.015 0 L 28.977 0 C 27.689 0 26.883 0.966 26.883 1.932 C 26.883 3.944 29.862 4.427 30.183 10.061 L 30.183 22.295 C 30.183 24.951 29.701 25.435 28.654 25.435 C 25.837 25.435 18.996 15.052 14.89 3.22 C 14.085 0.885 13.281 0 11.188 0 L 2.817 0 C 0.403 0 0 1.127 0 2.335 C 0 4.507 2.817 15.454 13.12 29.942 C 19.961 39.843 29.701 45.154 38.474 45.154 C 43.786 45.154 44.43 43.947 44.43 41.935 L 44.43 34.449 C 44.43 32.034 44.913 31.633 46.603 31.633 C 47.81 31.633 49.984 32.276 54.893 37.025 C 60.528 42.659 61.494 45.235 64.633 45.235 L 72.924 45.235 C 75.339 45.235 76.465 44.027 75.821 41.694 C 75.096 39.359 72.36 35.979 68.818 31.954 C 66.886 29.701 63.989 27.206 63.103 25.998 C 61.896 24.388 62.218 23.744 63.103 22.295 C 63.023 22.295 73.165 7.969 74.211 3.139"/>
    </g>

</svg>