<?xml version="1.0" encoding="utf-8"?>
<svg
    xmlns="http://www.w3.org/2000/svg"
    width="80"
    height="80"
    viewBox="0 0 76 76"
    style="shape-rendering: auto">

    <g id="logo_wechat" transform="matrix(1, 0, 0, 1, 0, 7.314)">
        <path style="fill: black" d="M 63.813 33.901 C 63.813 32.177 62.435 30.799 60.711 30.799 C 58.988 30.799 57.609 32.177 57.609 33.901 C 57.609 35.624 58.988 37.003 60.711 37.003 C 62.435 37.003 63.813 35.538 63.813 33.901 Z M 48.525 33.901 C 48.525 32.177 47.146 30.799 45.423 30.799 C 43.699 30.799 42.321 32.177 42.321 33.901 C 42.321 35.624 43.699 37.003 45.423 37.003 C 47.146 37.003 48.525 35.538 48.525 33.901 Z M 68.11 54.414 C 67.55 54.894 67.38 55.27 67.601 56.197 C 67.945 57.639 68.645 60.12 68.669 60.201 C 68.894 60.952 68.271 61.603 67.638 61.292 L 62.51 58.32 C 61.986 58.006 61.185 57.916 60.644 58.065 C 58.268 58.744 55.808 59.084 53.178 59.084 C 40.537 59.084 30.356 50.594 30.356 40.067 C 30.356 29.539 40.537 21.05 53.178 21.05 C 65.819 21.05 76 29.539 76 40.067 C 76 45.755 72.946 50.933 68.11 54.414 Z M 39.883 15.51 C 39.883 13.532 38.317 11.965 36.338 11.965 C 34.359 11.965 32.793 13.532 32.793 15.51 C 32.793 17.489 34.359 19.055 36.338 19.055 C 38.317 19.055 39.883 17.406 39.883 15.51 Z M 21.714 15.51 C 21.714 13.532 20.148 11.965 18.169 11.965 C 16.19 11.965 14.624 13.532 14.624 15.51 C 14.624 17.489 16.19 19.054 18.169 19.055 C 20.148 19.056 21.714 18.698 21.714 15.51 Z M 54.507 19.237 C 46.281 18.435 24.404 24.057 28.912 45.591 C 25.063 45.646 21.973 45.398 18.452 44.32 C 17.793 44.118 16.825 44.332 16.242 44.659 L 10.204 48.134 C 9.316 48.635 8.471 47.745 8.838 46.95 C 9.055 46.15 9.779 43.812 10.204 42.117 C 10.453 41.231 10.073 40.419 9.524 39.999 C 3.656 35.846 0 29.66 0 22.796 C 0 10.169 12.33 0 27.466 0 C 41.157 0 52.551 8.305 54.507 19.237 Z"/>
    </g>

</svg>