<?xml version="1.0" encoding="utf-8"?>
<svg
    xmlns="http://www.w3.org/2000/svg"
    width="80"
    height="80"
    viewBox="0 0 76 76"
    style="shape-rendering: auto">

    <g id="logo_whatsapp">
        <path style="fill: black" d="M 30.457 20.49 C 30.928 21.432 33.204 26.059 33.518 26.92 C 33.832 27.782 33.988 28.411 33.046 29.038 C 32.105 29.665 29.985 31.468 29.358 32.018 C 28.729 32.566 28.651 33.116 29.122 34.057 C 29.593 34.997 30.587 38.029 33.793 41.623 C 36.287 44.421 39.368 46.308 40.31 46.857 C 41.253 47.407 41.762 46.916 42.232 46.445 C 42.653 46.021 43.33 45.504 43.88 45.035 C 44.429 44.563 44.823 44.406 45.449 44.093 C 46.078 43.779 46.628 43.936 47.098 44.171 C 47.57 44.406 52.201 46.289 54.085 47.073 C 55.92 47.836 55.672 48.612 55.7 49.19 C 55.728 49.738 55.734 50.366 55.734 50.993 C 55.734 51.62 55.498 52.64 54.556 53.502 C 53.614 54.364 51.337 56.796 46.707 56.796 C 42.074 56.796 37.6 53.425 36.972 52.954 C 36.344 52.483 26.839 46.319 22.764 36.878 C 21.793 34.634 21.215 32.881 20.781 31.514 C 20.065 29.26 20.166 27.208 20.409 25.587 C 20.678 23.779 22.684 20.021 24.882 19.237 C 27.082 18.452 28.965 18.452 29.358 18.687 C 29.75 18.922 29.985 19.549 30.457 20.49 M 7.013 37.66 L 7.013 37.673 C 7.015 43.289 8.524 48.798 11.376 53.605 L 12.055 54.747 L 8.947 66.594 L 20.498 63.432 L 21.682 64.177 C 26.667 67.31 32.426 68.964 38.341 68.961 C 55.598 68.955 69.639 54.914 69.639 37.648 C 69.636 29.286 66.376 21.428 60.459 15.518 C 54.544 9.609 46.678 6.356 38.315 6.359 C 21.055 6.366 7.013 20.408 7.013 37.66 M 64.956 11.02 C 72.074 18.13 75.995 27.586 76 37.66 C 76 58.418 59.106 75.313 38.343 75.321 C 31.705 75.324 25.227 73.589 19.516 70.294 L 0 75.637 L 5.238 55.672 C 2.237 50.171 0.656 43.979 0.654 37.675 L 0.654 37.66 L 0.654 37.66 C 0.654 16.905 17.549 0.009 38.313 0 C 48.375 -0.004 57.836 3.91 64.956 11.02"/>
    </g>

</svg>