<?xml version="1.0" encoding="utf-8" standalone="no"?>
<svg
   xmlns="http://www.w3.org/2000/svg"
   xmlns:rdf="http://www.w3.org/1999/02/22-rdf-syntax-ns#"
   xmlns:dc="http://purl.org/dc/elements/1.1/"
   xmlns:cc="http://creativecommons.org/ns#"
   width="28"
   height="18"
   viewBox="0 0 28 18"
   style="shape-rendering: auto">

  <metadata>
    <rdf:RDF>
      <cc:Work>
        <dc:format>image/svg+xml</dc:format>
        <dc:type rdf:resource="http://purl.org/dc/dcmitype/StillImage"/>
        <dc:rights><cc:Agent><dc:title>Copyright © 2017—2019 Maxim Rysevets. All rights reserved.</dc:title></cc:Agent></dc:rights>
        <dc:creator><cc:Agent><dc:title>Maxim Rysevets</dc:title></cc:Agent></dc:creator>
      </cc:Work>
    </rdf:RDF>
  </metadata>

  <g id="flag">
    <rect id="flag-bg" x="0" y="0"  width="28" height="18" style="fill: #faedf1; stroke: none"/>
    <rect id="line-1"  x="0" y="0"  width="28" height="2"  style="fill: #bd0c3b; stroke: none"/>
    <rect id="line-2"  x="0" y="4"  width="28" height="2"  style="fill: #bd0c3b; stroke: none"/>
    <rect id="line-3"  x="0" y="8"  width="28" height="2"  style="fill: #bd0c3b; stroke: none"/>
    <rect id="line-4"  x="0" y="12" width="28" height="2"  style="fill: #bd0c3b; stroke: none"/>
    <rect id="line-5"  x="0" y="16" width="28" height="2"  style="fill: #bd0c3b; stroke: none"/>
    <g id="stars">
      <rect id="stars-bg" x="0"  y="0" width="13" height="10" style="fill: #002466; stroke: none"/>
      <rect id="star-1-1" x="1"  y="1" width="1" height="1" style="fill: white; stroke: none"/>
      <rect id="star-1-3" x="1"  y="4" width="1" height="1" style="fill: white; stroke: none"/>
      <rect id="star-1-5" x="1"  y="7" width="1" height="1" style="fill: white; stroke: none"/>
      <rect id="star-1-2" x="2"  y="2" width="1" height="1" style="fill: white; stroke: none"/>
      <rect id="star-1-4" x="2"  y="5" width="1" height="1" style="fill: white; stroke: none"/>
      <rect id="star-1-6" x="2"  y="8" width="1" height="1" style="fill: white; stroke: none"/>
      <rect id="star-2-1" x="4"  y="1" width="1" height="1" style="fill: white; stroke: none"/>
      <rect id="star-2-3" x="4"  y="4" width="1" height="1" style="fill: white; stroke: none"/>
      <rect id="star-2-5" x="4"  y="7" width="1" height="1" style="fill: white; stroke: none"/>
      <rect id="star-2-2" x="5"  y="2" width="1" height="1" style="fill: white; stroke: none"/>
      <rect id="star-2-4" x="5"  y="5" width="1" height="1" style="fill: white; stroke: none"/>
      <rect id="star-2-6" x="5"  y="8" width="1" height="1" style="fill: white; stroke: none"/>
      <rect id="star-3-1" x="7"  y="1" width="1" height="1" style="fill: white; stroke: none"/>
      <rect id="star-3-3" x="7"  y="4" width="1" height="1" style="fill: white; stroke: none"/>
      <rect id="star-3-5" x="7"  y="7" width="1" height="1" style="fill: white; stroke: none"/>
      <rect id="star-3-2" x="8"  y="2" width="1" height="1" style="fill: white; stroke: none"/>
      <rect id="star-3-4" x="8"  y="5" width="1" height="1" style="fill: white; stroke: none"/>
      <rect id="star-3-6" x="8"  y="8" width="1" height="1" style="fill: white; stroke: none"/>
      <rect id="star-4-1" x="10" y="1" width="1" height="1" style="fill: white; stroke: none"/>
      <rect id="star-4-3" x="10" y="4" width="1" height="1" style="fill: white; stroke: none"/>
      <rect id="star-4-5" x="10" y="7" width="1" height="1" style="fill: white; stroke: none"/>
      <rect id="star-4-2" x="11" y="2" width="1" height="1" style="fill: white; stroke: none"/>
      <rect id="star-4-4" x="11" y="5" width="1" height="1" style="fill: white; stroke: none"/>
      <rect id="star-4-6" x="11" y="8" width="1" height="1" style="fill: white; stroke: none"/>
    </g>
  </g>

</svg>