<?xml version="1.0" encoding="utf-8" standalone="no"?>
<svg
    xmlns="http://www.w3.org/2000/svg"
    xmlns:bx="https://boxy-svg.com"
    xmlns:cc="http://creativecommons.org/ns#"
    xmlns:dc="http://purl.org/dc/elements/1.1/"
    xmlns:inkscape="http://www.inkscape.org/namespaces/inkscape"
    xmlns:rdf="http://www.w3.org/1999/02/22-rdf-syntax-ns#"
    xmlns:sodipodi="http://sodipodi.sourceforge.net/DTD/sodipodi-0.dtd"
    width="40"
    height="400"
    viewBox="0 0 40 400"
    style="shape-rendering: auto">

    <metadata>
        <rdf:RDF>
            <cc:Work>
                <dc:format>image/svg+xml</dc:format>
                <dc:type rdf:resource="http://purl.org/dc/dcmitype/StillImage"/>
                <dc:rights><cc:Agent><dc:title>Copyright © 2017—2024 Maxim Rysevets. All rights reserved.</dc:title></cc:Agent></dc:rights>
                <dc:creator><cc:Agent><dc:title>Maxim Rysevets</dc:title></cc:Agent></dc:creator>
            </cc:Work>
        </rdf:RDF>
    </metadata>

    <sodipodi:namedview>
        <sodipodi:guide position="10,0"  orientation="1,0"/>
        <sodipodi:guide position="20,0"  orientation="1,0"/>
        <sodipodi:guide position="30,0"  orientation="1,0"/>
        <sodipodi:guide position="0,40"  orientation="0,1"/>
        <sodipodi:guide position="0,80"  orientation="0,1"/>
        <sodipodi:guide position="0,120" orientation="0,1"/>
        <sodipodi:guide position="0,160" orientation="0,1"/>
        <sodipodi:guide position="0,200" orientation="0,1"/>
        <sodipodi:guide position="0,240" orientation="0,1"/>
        <sodipodi:guide position="0,280" orientation="0,1"/>
        <sodipodi:guide position="0,320" orientation="0,1"/>
        <sodipodi:guide position="0,360" orientation="0,1"/>
        <sodipodi:guide position="0,400" orientation="0,1"/>
    </sodipodi:namedview>

    <defs>
        <bx:guide x="0"  y="0"   angle="90"/>
        <bx:guide x="0"  y="40"  angle="90"/>
        <bx:guide x="0"  y="80"  angle="90"/>
        <bx:guide x="0"  y="120" angle="90"/>
        <bx:guide x="0"  y="160" angle="90"/>
        <bx:guide x="0"  y="200" angle="90"/>
        <bx:guide x="0"  y="240" angle="90"/>
        <bx:guide x="0"  y="280" angle="90"/>
        <bx:guide x="0"  y="320" angle="90"/>
        <bx:guide x="0"  y="360" angle="90"/>
        <bx:guide x="0"  y="400" angle="90"/>
        <bx:guide x="10" y="0"   angle="0"/>
        <bx:guide x="20" y="0"   angle="0"/>
        <bx:guide x="30" y="0"   angle="0"/>
    </defs>

    <g id="icon_update">
        <path style="fill: none; stroke: black; stroke-width: 4px; stroke-linecap: round" d="M 10 20 C 10 14.477 14.477 10 20 10 C 25.523 10 30 14.477 30 20 C 30 25.523 25.523 30 20 30"/>
        <path style="fill: black; stroke: none" d="M 11 30.077 L 19.794 25 L 19.794 35.155 Z"/>
    </g>

    <g id="icon_insert">
        <line style="stroke: black; stroke-width: 4px; stroke-linecap: round" x1="10" y1="60" x2="30" y2="60"/>
        <line style="stroke: black; stroke-width: 4px; stroke-linecap: round" x1="20" y1="49" x2="20" y2="71"/>
    </g>

    <g id="icon_delete">
        <line style="stroke: black; stroke-width: 4px; stroke-linecap: round" x1="10" y1="100" x2="30" y2="100"/>
    </g>

    <g id="icon_play">
        <path style="fill: black; stroke: none" d="M 12 152 L 28 140 L 12 128 Z"/>
    </g>

    <g id="icon_pause">
        <path style="fill: black; stroke: none" d="M 22 190 L 28 190 L 28 170 L 22 170 Z M 12 190 L 18 190 L 18 170 L 12 170 Z"/>
    </g>

</svg>