<?xml version="1.0" encoding="utf-8" standalone="no"?>
<svg
    xmlns="http://www.w3.org/2000/svg"
    xmlns:bx="https://boxy-svg.com"
    xmlns:cc="http://creativecommons.org/ns#"
    xmlns:dc="http://purl.org/dc/elements/1.1/"
    xmlns:inkscape="http://www.inkscape.org/namespaces/inkscape"
    xmlns:rdf="http://www.w3.org/1999/02/22-rdf-syntax-ns#"
    xmlns:sodipodi="http://sodipodi.sourceforge.net/DTD/sodipodi-0.dtd"
    xmlns:xlink="http://www.w3.org/1999/xlink"
    width="64"
    height="64"
    viewBox="0 0 64 64"
    style="shape-rendering: auto">

    <metadata>
        <rdf:RDF>
            <cc:Work>
                <dc:format>image/svg+xml</dc:format>
                <dc:type rdf:resource="http://purl.org/dc/dcmitype/StillImage"/>
                <dc:rights><cc:Agent><dc:title>Copyright © 2017—2024 Maxim Rysevets. All rights reserved.</dc:title></cc:Agent></dc:rights>
                <dc:creator><cc:Agent><dc:title>Maxim Rysevets</dc:title></cc:Agent></dc:creator>
            </cc:Work>
        </rdf:RDF>
    </metadata>

    <sodipodi:namedview bordercolor="black" showgrid="false" showguides="true">
        <sodipodi:guide position="0,20" orientation="0,1"/>
        <sodipodi:guide position="0,32" orientation="0,1"/>
        <sodipodi:guide position="0,44" orientation="0,1"/>
        <sodipodi:guide position="0,64" orientation="0,1"/>
        <sodipodi:guide position="20,0" orientation="1,0"/>
        <sodipodi:guide position="32,0" orientation="1,0"/>
        <sodipodi:guide position="44,0" orientation="1,0"/>
    </sodipodi:namedview>

    <defs>
        <bx:guide x="0"  y="20" angle="90"/>
        <bx:guide x="0"  y="32" angle="90"/>
        <bx:guide x="0"  y="44" angle="90"/>
        <bx:guide x="0"  y="64" angle="90"/>
        <bx:guide x="20" y="0"  angle="0" />
        <bx:guide x="32" y="0"  angle="0" />
        <bx:guide x="44" y="0"  angle="0" />
    </defs>

    <g id="icon_develop">
        <path id="ico_dev-outter_shadow" style="fill: black; fill-opacity: .35" d="M 32 18 C 24.268 18 18 24.268 18 32 C 18 39.732 24.268 46 32 46 C 39.732 46 46 39.732 46 32 C 46 24.268 39.732 18 32 18 Z M 32 22 C 37.523 22 42 26.477 42 32 C 42 37.523 37.523 42 32 42 C 26.477 42 22 37.523 22 32 C 22 26.477 26.477 22 32 22 Z"/>
        <circle id="ico_dev-circle_outter" cy="32" cx="32" r="14"  style="fill: none; stroke: black; stroke-width: 1px"/>
        <circle id="ico_dev-circle_inner"  cx="32" cy="32" r="3.5" style="fill: none; stroke: black; stroke-width: 1px"/>
        <g id="ico_dev-teeth">
            <path id="ico_dev-t01" style="fill: none; stroke: black; stroke-width: 1px; stroke-linecap: round" d="M 32 18 L 32 16"/>
            <path id="ico_dev-t02" style="fill: none; stroke: black; stroke-width: 1px; stroke-linecap: round" d="M 35.623 18.477 L 36.141 16.545"/>
            <path id="ico_dev-t03" style="fill: none; stroke: black; stroke-width: 1px; stroke-linecap: round" d="M 39 19.876 L 40 18.144"/>
            <path id="ico_dev-t04" style="fill: none; stroke: black; stroke-width: 1px; stroke-linecap: round" d="M 41.899 22.101 L 43.314 20.686"/>
            <path id="ico_dev-t05" style="fill: none; stroke: black; stroke-width: 1px; stroke-linecap: round" d="M 44.124 25 L 45.856 24"/>
            <path id="ico_dev-t06" style="fill: none; stroke: black; stroke-width: 1px; stroke-linecap: round" d="M 45.523 28.377 L 47.455 27.859"/>
            <path id="ico_dev-t07" style="fill: none; stroke: black; stroke-width: 1px; stroke-linecap: round" d="M 46 32 L 48 32"/>
            <path id="ico_dev-t08" style="fill: none; stroke: black; stroke-width: 1px; stroke-linecap: round" d="M 45.523 35.623 L 47.455 36.141"/>
            <path id="ico_dev-t09" style="fill: none; stroke: black; stroke-width: 1px; stroke-linecap: round" d="M 44.124 39 L 45.856 40"/>
            <path id="ico_dev-t10" style="fill: none; stroke: black; stroke-width: 1px; stroke-linecap: round" d="M 41.899 41.899 L 43.314 43.314"/>
            <path id="ico_dev-t11" style="fill: none; stroke: black; stroke-width: 1px; stroke-linecap: round" d="M 39 44.124 L 40 45.856"/>
            <path id="ico_dev-t12" style="fill: none; stroke: black; stroke-width: 1px; stroke-linecap: round" d="M 35.623 45.523 L 36.141 47.455"/>
            <path id="ico_dev-t13" style="fill: none; stroke: black; stroke-width: 1px; stroke-linecap: round" d="M 32 46 L 32 48"/>
            <path id="ico_dev-t14" style="fill: none; stroke: black; stroke-width: 1px; stroke-linecap: round" d="M 28.377 45.523 L 27.859 47.455"/>
            <path id="ico_dev-t15" style="fill: none; stroke: black; stroke-width: 1px; stroke-linecap: round" d="M 25 44.124 L 24 45.856"/>
            <path id="ico_dev-t16" style="fill: none; stroke: black; stroke-width: 1px; stroke-linecap: round" d="M 22.101 41.899 L 20.686 43.314"/>
            <path id="ico_dev-t17" style="fill: none; stroke: black; stroke-width: 1px; stroke-linecap: round" d="M 19.876 39 L 18.144 40"/>
            <path id="ico_dev-t18" style="fill: none; stroke: black; stroke-width: 1px; stroke-linecap: round" d="M 18.477 35.623 L 16.545 36.141"/>
            <path id="ico_dev-t19" style="fill: none; stroke: black; stroke-width: 1px; stroke-linecap: round" d="M 18 32 L 16 32"/>
            <path id="ico_dev-t20" style="fill: none; stroke: black; stroke-width: 1px; stroke-linecap: round" d="M 18.477 28.377 L 16.545 27.859"/>
            <path id="ico_dev-t21" style="fill: none; stroke: black; stroke-width: 1px; stroke-linecap: round" d="M 19.876 25 L 18.144 24"/>
            <path id="ico_dev-t22" style="fill: none; stroke: black; stroke-width: 1px; stroke-linecap: round" d="M 22.101 22.101 L 20.686 20.686"/>
            <path id="ico_dev-t23" style="fill: none; stroke: black; stroke-width: 1px; stroke-linecap: round" d="M 25 19.876 L 24 18.144"/>
            <path id="ico_dev-t24" style="fill: none; stroke: black; stroke-width: 1px; stroke-linecap: round" d="M 28.377 18.477 L 27.859 16.545"/>
        </g>
        <g id="ico_dev-crossing" transform="rotate(45,32,32)">
            <path id="ico_dev-cline_1" style="fill: none; stroke: black; stroke-width: 1px; stroke-linecap: butt" d="M 32 22 L 32 28.5 Z"/>
            <path id="ico_dev-cline_2" style="fill: none; stroke: black; stroke-width: 1px; stroke-linecap: butt" d="M 22 32 L 28.5 32 Z"/>
            <path id="ico_dev-cline_3" style="fill: none; stroke: black; stroke-width: 1px; stroke-linecap: butt" d="M 35.5 32 L 42 32 Z"/>
            <path id="ico_dev-cline_4" style="fill: none; stroke: black; stroke-width: 1px; stroke-linecap: butt" d="M 32 35.5 L 32 42 Z"/>
        </g>
        <animateTransform attributeType="XML" attributeName="transform" type="rotate" from="0 32 32" to="360 32 32" dur="20s" repeatCount="indefinite"/>
    </g>

</svg>