<?xml version="1.0" encoding="utf-8" standalone="no"?>
<svg
    xmlns="http://www.w3.org/2000/svg"
    xmlns:bx="https://boxy-svg.com"
    xmlns:cc="http://creativecommons.org/ns#"
    xmlns:dc="http://purl.org/dc/elements/1.1/"
    xmlns:inkscape="http://www.inkscape.org/namespaces/inkscape"
    xmlns:rdf="http://www.w3.org/1999/02/22-rdf-syntax-ns#"
    xmlns:sodipodi="http://sodipodi.sourceforge.net/DTD/sodipodi-0.dtd"
    width="80"
    height="100"
    viewBox="0 0 80 100"
    style="shape-rendering: auto">

    <metadata>
        <rdf:RDF>
            <cc:Work>
                <dc:format>image/svg+xml</dc:format>
                <dc:type rdf:resource="http://purl.org/dc/dcmitype/StillImage"/>
                <dc:rights><cc:Agent><dc:title>Copyright © 2017—2024 Maxim Rysevets. All rights reserved.</dc:title></cc:Agent></dc:rights>
                <dc:creator><cc:Agent><dc:title>Maxim Rysevets</dc:title></cc:Agent></dc:creator>
            </cc:Work>
        </rdf:RDF>
    </metadata>

    <sodipodi:namedview bordercolor="black" showgrid="false" showguides="true">
        <sodipodi:guide position="0,0"  orientation="0,1"/>
        <sodipodi:guide position="0,20" orientation="0,1"/>
        <sodipodi:guide position="0,40" orientation="0,1"/>
        <sodipodi:guide position="0,60" orientation="0,1"/>
        <sodipodi:guide position="0,80" orientation="0,1"/>
        <sodipodi:guide position="10,0" orientation="1,0"/>
        <sodipodi:guide position="20,0" orientation="1,0"/>
        <sodipodi:guide position="40,0" orientation="1,0"/>
        <sodipodi:guide position="60,0" orientation="1,0"/>
    </sodipodi:namedview>

    <defs>
        <bx:guide x="0"  y="20"  angle="90"/>
        <bx:guide x="0"  y="40"  angle="90"/>
        <bx:guide x="0"  y="60"  angle="90"/>
        <bx:guide x="0"  y="80"  angle="90"/>
        <bx:guide x="0"  y="100" angle="90"/>
        <bx:guide x="10" y="100" angle="0"/>
        <bx:guide x="20" y="100" angle="0"/>
        <bx:guide x="40" y="100" angle="0"/>
        <bx:guide x="60" y="100" angle="0"/>
    </defs>

    <g id="icon_checkbox">
        <line id="ico_chk-cross_part_1" x1="4.5"  y1="15.5" x2="15.5" y2="4.5" style="stroke: black; stroke-width: 3px; stroke-linecap: round"/>
        <line id="ico_chk-cross_part_2" x1="15.5" y1="15.5" x2="4.5"  y2="4.5" style="stroke: black; stroke-width: 3px; stroke-linecap: round"/>
        <line id="ico_trs-cross_part_1" x1="23"   y1="17"   x2="37"   y2="3"   style="stroke: black; stroke-linecap: round"/>
        <line id="ico_trs-cross_part_2" x1="23"   y1="3"    x2="37"   y2="17"  style="stroke: black; stroke-linecap: round"/>
        <path id="ico_clr-cross_part_1" style="fill: black" d="M 78.5 1.5 L 78.5 18.5 L 61.5 18.5 L 61.5 1.5 Z M 64.5 15.5 L 75.5 15.5 L 75.5 4.5 L 64.5 4.5 Z"/>
        <path id="ico_clr-cross_part_2" style="fill: white" d="M 76 7 L 78 7 L 78 13 L 76 13 Z M 62 7 L 64 7 L 64 13 L 62 13 Z M 73 16 L 73 18 L 67 18 L 67 16 Z M 73 2 L 73 4 L 67 4 L 67 2 Z"/>
    </g>

    <g id="icon_radiobutton">
        <circle id="ico_rbn-circle" cx="10" cy="30" r="6" style="fill: black; stroke: none"/>
    </g>

    <g id="icon_switcher">
        <circle id="ico_swc-circle-off" cx="10" cy="50" r="6" style="fill: none; stroke: black; stroke-width: 2px"/>
        <circle id="ico_swc-circle-on"  cx="70" cy="50" r="7" style="fill: black; stroke: none"/>
    </g>

    <g id="icon_opener">
        <path id="ico_d-arrow" style="fill: none; stroke: black; stroke-width: 3px; stroke-linecap: round; stroke-linejoin: round" d="M 4 68 L 10 74 L 16 68"/>
        <path id="ico_r-arrow" style="fill: none; stroke: black; stroke-width: 3px; stroke-linecap: round; stroke-linejoin: round" d="M 28 76 L 34 70 L 28 64"/>
        <path id="ico_l-arrow" style="fill: none; stroke: black; stroke-width: 3px; stroke-linecap: round; stroke-linejoin: round" d="M 52 76 L 46 70 L 52 64"/>
        <path id="ico_u-arrow" style="fill: none; stroke: black; stroke-width: 3px; stroke-linecap: round; stroke-linejoin: round" d="M 64 72 L 70 66 L 76 72"/>
    </g>

    <g id="icon_opener_for_description">
        <g id="ico_shd-v">
            <circle id="ico_shd-v-dot-1" cx="5"  cy="90" r="1.5" style="fill: black; stroke: none"/>
            <circle id="ico_shd-v-dot-2" cx="10" cy="90" r="1.5" style="fill: black; stroke: none"/>
            <circle id="ico_shd-v-dot-3" cx="15" cy="90" r="1.5" style="fill: black; stroke: none"/>
        </g>
        <g id="ico_shd-h">
            <circle id="ico_shd-h-dot-1" cx="30" cy="85" r="1.5" style="fill: black; stroke: none"/>
            <circle id="ico_shd-h-dot-1" cx="30" cy="90" r="1.5" style="fill: black; stroke: none"/>
            <circle id="ico_shd-h-dot-3" cx="30" cy="95" r="1.5" style="fill: black; stroke: none"/>
        </g>
    </g>

</svg>