<?xml version="1.0" encoding="utf-8" standalone="no"?>
<svg
    xmlns="http://www.w3.org/2000/svg"
    xmlns:cc="http://creativecommons.org/ns#"
    xmlns:dc="http://purl.org/dc/elements/1.1/"
    xmlns:rdf="http://www.w3.org/1999/02/22-rdf-syntax-ns#"
    width="107"
    height="60"
    viewBox="0 0 107 60"
    style="shape-rendering: auto">

    <metadata>
        <rdf:RDF>
            <cc:Work>
                <dc:format>image/svg+xml</dc:format>
                <dc:type rdf:resource="http://purl.org/dc/dcmitype/StillImage"/>
                <dc:rights><cc:Agent><dc:title>Copyright © 2017—2024 Maxim Rysevets. All rights reserved.</dc:title></cc:Agent></dc:rights>
                <dc:creator><cc:Agent><dc:title>Maxim Rysevets</dc:title></cc:Agent></dc:creator>
            </cc:Work>
        </rdf:RDF>
    </metadata>

    <g id="icon_gallery_video">
        <rect x="0" y="0" width="108" height="60" style="fill: #e5e5e5"/>
        <circle style="fill: #a5a5a5; stroke: white; stroke-width: .5px" cx="46" cy="13" r="6"/>
        <circle style="fill: #a5a5a5; stroke: white; stroke-width: .5px" cx="62" cy="13" r="6"/>
        <path style="fill: #a5a5a5; stroke: white; stroke-width: .5px; stroke-linecap: round" d="M 54 38.092 L 45.148 52.477 C 44.86 52.947 45.006 53.562 45.477 53.852 C 45.947 54.14 46.562 53.994 46.852 53.523 L 54 41.906 L 61.148 53.523 C 61.438 53.994 62.053 54.14 62.523 53.852 C 62.994 53.562 63.14 52.947 62.852 52.477 L 54 38.092 Z"/>
        <path style="fill: #a5a5a5; stroke: white; stroke-width: .5px" transform="matrix(1, 0, 0, 1, 29, 20)" d="M 10 10 L 0 20 L 0 0 L 10 10 Z"/>
        <rect style="fill: #a5a5a5; stroke: white; stroke-width: .5px" x="39" y="20" width="30" height="20"/>
    </g>

</svg>