<?xml version="1.0" encoding="utf-8" standalone="no"?>
<svg
    xmlns="http://www.w3.org/2000/svg"
    xmlns:cc="http://creativecommons.org/ns#"
    xmlns:dc="http://purl.org/dc/elements/1.1/"
    xmlns:rdf="http://www.w3.org/1999/02/22-rdf-syntax-ns#"
    width="60"
    height="60"
    viewBox="0 0 60 60"
    style="shape-rendering: auto">

    <metadata>
        <rdf:RDF>
            <cc:Work>
                <dc:format>image/svg+xml</dc:format>
                <dc:type rdf:resource="http://purl.org/dc/dcmitype/StillImage"/>
                <dc:rights><cc:Agent><dc:title>Copyright © 2017—2024 Maxim Rysevets. All rights reserved.</dc:title></cc:Agent></dc:rights>
                <dc:creator><cc:Agent><dc:title>Maxim Rysevets</dc:title></cc:Agent></dc:creator>
            </cc:Work>
        </rdf:RDF>
    </metadata>

    <g id="icon_gallery_audio">
        <rect x="0" y="0" width="60" height="60" style="fill: #e5e5e5"/>
        <path style="fill: #a5a5a5; stroke: white; stroke-width: .5px" d="M 29.472 12.167 L 29.472 40.026 C 28.686 39.586 26.144 39.12 24.142 39.782 C 20.996 40.823 19.365 43.833 20.253 45.856 C 21.14 47.88 24.32 48.441 27.355 47.11 C 29.793 46.04 31.468 44.027 31.47 42.167 L 31.472 42.167 L 31.472 21.542 C 36.753 23.546 40.71 27.907 37.598 35.795 C 37.235 36.25 37.98 36.545 38.172 36.231 C 40.397 32.541 40.389 28.352 39.111 25.676 C 37.638 22.471 32.452 18.295 31.472 12.167 L 29.472 12.167 Z"/>
    </g>

</svg>