<?xml version="1.0" encoding="utf-8"?>
<svg
    xmlns="http://www.w3.org/2000/svg"
    width="80"
    height="80"
    viewBox="0 0 76 76"
    style="shape-rendering: auto">

    <g id="logo_behance" transform="matrix(1, 0, 0, 1, 0, 14.1885)">
        <path style="fill: black" d="M 0 0 L 0 46.745 L 22.656 46.745 C 24.753 46.745 26.798 46.482 28.767 45.96 C 30.759 45.437 32.534 44.631 34.083 43.536 C 35.62 42.447 36.868 41.042 37.784 39.301 C 38.692 37.585 39.145 35.547 39.145 33.174 C 39.145 30.25 38.449 27.755 37.03 25.671 C 35.617 23.6 33.484 22.143 30.61 21.314 C 32.721 20.315 34.301 19.032 35.377 17.462 C 36.448 15.892 36.983 13.923 36.983 11.571 C 36.983 9.394 36.623 7.554 35.913 6.084 C 35.183 4.592 34.163 3.41 32.861 2.519 C 31.537 1.629 29.972 0.978 28.139 0.59 C 26.293 0.191 24.275 0 22.039 0 Z M 49.611 3.135 L 49.611 7.747 L 68.561 7.747 L 68.561 3.135 Z M 10.292 7.961 L 19.922 7.961 C 20.834 7.961 21.722 8.026 22.571 8.192 C 23.433 8.339 24.179 8.618 24.838 9.014 C 25.5 9.396 26.026 9.941 26.424 10.637 C 26.804 11.337 26.996 12.234 26.996 13.323 C 26.996 15.282 26.423 16.713 25.238 17.575 C 24.041 18.454 22.534 18.886 20.711 18.886 L 10.292 18.886 Z M 59.52 11.939 C 56.925 11.939 54.582 12.402 52.458 13.318 C 50.335 14.238 48.512 15.498 46.974 17.094 C 45.44 18.68 44.271 20.573 43.43 22.764 C 42.603 24.952 42.178 27.317 42.178 29.847 C 42.178 32.465 42.586 34.878 43.393 37.058 C 44.21 39.253 45.356 41.119 46.832 42.701 C 48.346 44.272 50.143 45.48 52.297 46.34 C 54.452 47.191 56.854 47.623 59.52 47.623 C 63.346 47.623 66.627 46.745 69.32 44.987 C 72.045 43.238 74.039 40.328 75.356 36.253 L 67.167 36.253 C 66.85 37.3 66.032 38.309 64.684 39.253 C 63.325 40.198 61.705 40.675 59.83 40.675 C 57.222 40.675 55.209 39.989 53.814 38.629 C 52.42 37.269 51.514 34.734 51.514 32.057 L 75.942 32.057 C 76.116 29.433 75.901 26.924 75.293 24.524 C 74.681 22.116 73.696 19.976 72.318 18.104 C 70.939 16.222 69.181 14.724 67.04 13.615 C 64.888 12.492 62.384 11.939 59.52 11.939 Z M 59.241 18.961 C 61.524 18.961 63.391 19.624 64.497 20.846 C 65.607 22.078 66.418 23.831 66.639 26.2 L 51.514 26.2 C 51.556 25.542 51.702 24.793 51.938 23.968 C 52.177 23.125 52.584 22.334 53.186 21.584 C 53.788 20.847 54.577 20.223 55.541 19.721 C 56.526 19.211 57.755 18.961 59.241 18.961 Z M 10.292 25.911 L 21.483 25.911 C 23.699 25.911 25.497 26.421 26.85 27.444 C 28.198 28.483 28.88 30.194 28.88 32.604 C 28.88 33.834 28.678 34.852 28.263 35.637 C 27.851 36.426 27.277 37.044 26.59 37.5 C 25.901 37.97 25.084 38.292 24.166 38.492 C 23.259 38.694 22.295 38.786 21.28 38.786 L 10.292 38.786 Z"/>
    </g>

</svg>