<?xml version="1.0" encoding="utf-8"?>
<svg
    xmlns="http://www.w3.org/2000/svg"
    width="80"
    height="80"
    viewBox="0 0 76 76"
    style="shape-rendering: auto">

    <g id="logo_facebook">
        <path style="fill: black" d="M 38 0 C 17.013 0 0 17.013 0 38 C 0.024 56.676 13.615 72.567 32.062 75.484 L 32.062 49.117 L 22.359 49.117 L 22.359 38.063 L 32.062 38.063 L 32.062 28.357 C 32.771 18.821 38.927 14.765 46.667 14.768 C 49.003 14.768 51.769 15.003 55.075 15.517 L 55.075 24.916 L 50.281 24.916 C 45.031 24.916 44.025 28.356 44.025 30.896 L 44.025 38.063 L 54.624 38.063 L 52.981 49.117 L 44.025 49.117 L 44.025 75.5 C 62.442 72.542 75.991 56.654 76 38 C 76.001 17.013 58.987 0 38 0 Z"/>
    </g>

</svg>