<?xml version="1.0" encoding="utf-8"?>
<svg
    xmlns="http://www.w3.org/2000/svg"
    width="80"
    height="80"
    viewBox="0 0 76 76"
    style="shape-rendering: auto">

    <g id="logo_gitlab" transform="matrix(1, 0, 0, 1, 0, 2.87)">
        <path style="fill: black" d="M 75.775 39.367 L 71.728 26.903 C 71.73 26.909 71.731 26.915 71.733 26.921 C 71.731 26.914 71.73 26.908 71.728 26.901 L 71.728 26.9 L 71.728 26.899 L 63.694 2.167 C 62.598 -0.805 58.584 -0.61 57.663 2.186 L 50.037 25.662 L 25.977 25.662 L 18.337 2.184 C 17.44 -0.632 13.363 -0.819 12.3 2.186 L 4.288 26.897 L 4.287 26.9 L 4.287 26.901 C 4.285 26.907 4.284 26.913 4.282 26.92 C 4.284 26.914 4.284 26.908 4.286 26.903 L 0.225 39.367 C -0.386 41.248 0.277 43.293 1.875 44.456 L 36.945 69.937 C 37.587 70.342 38.368 70.383 39.017 69.957 C 39.022 69.954 74.126 44.455 74.126 44.455 C 75.723 43.293 76.386 41.248 75.775 39.367 Z M 60.681 4.484 L 67.56 25.662 L 53.803 25.662 L 60.681 4.484 Z M 66.355 29.243 L 42.846 59.365 L 52.639 29.243 L 66.355 29.243 Z M 33.154 59.367 L 9.658 29.243 L 23.375 29.243 L 33.154 59.367 Z M 15.319 4.484 L 22.211 25.662 L 8.453 25.662 L 15.319 4.484 Z M 3.981 41.559 C 3.641 41.312 3.5 40.875 3.63 40.474 L 6.649 31.209 L 28.772 59.572 L 3.981 41.559 Z M 37.999 62.693 L 27.14 29.243 L 48.873 29.243 L 37.999 62.693 Z M 72.02 41.558 L 47.232 59.566 L 69.362 31.211 L 72.369 40.473 C 72.5 40.875 72.359 41.312 72.02 41.558 Z"/>
    </g>

</svg>