<?xml version="1.0" encoding="utf-8"?>
<svg
    xmlns="http://www.w3.org/2000/svg"
    width="80"
    height="80"
    viewBox="0 0 76 76"
    style="shape-rendering: auto">

    <g id="logo_instagram">
        <path style="fill: black" d="M 38 0 C 27.679 0 26.386 0.044 22.333 0.229 C 18.288 0.414 15.526 1.056 13.108 1.996 C 10.61 2.967 8.49 4.266 6.378 6.378 C 4.266 8.49 2.967 10.61 1.996 13.108 C 1.056 15.526 0.414 18.288 0.229 22.333 C 0.044 26.386 0 27.679 0 38 C 0 48.321 0.044 49.614 0.229 53.667 C 0.414 57.712 1.056 60.474 1.996 62.892 C 2.967 65.39 4.266 67.51 6.378 69.622 C 8.49 71.734 10.61 73.033 13.108 74.004 C 15.526 74.944 18.288 75.586 22.333 75.771 C 26.386 75.956 27.679 76 38 76 C 48.321 76 49.614 75.956 53.667 75.771 C 57.712 75.586 60.474 74.944 62.892 74.004 C 65.39 73.033 67.51 71.734 69.622 69.622 C 71.734 67.51 73.033 65.39 74.004 62.892 C 74.944 60.474 75.586 57.712 75.771 53.667 C 75.956 49.614 76 48.321 76 38 C 76 27.679 75.956 26.386 75.771 22.333 C 75.586 18.288 74.944 15.526 74.004 13.108 C 73.033 10.61 71.734 8.49 69.622 6.378 C 67.51 4.266 65.39 2.967 62.892 1.996 C 60.474 1.056 57.712 0.414 53.667 0.229 C 49.614 0.044 48.321 0 38 0 Z M 38 6.848 C 48.146 6.848 49.349 6.886 53.355 7.069 C 57.06 7.238 59.072 7.857 60.412 8.377 C 62.185 9.067 63.451 9.889 64.78 11.22 C 66.111 12.549 66.933 13.815 67.623 15.588 C 68.143 16.928 68.762 18.94 68.931 22.645 C 69.114 26.651 69.152 27.854 69.152 38 C 69.152 48.146 69.114 49.349 68.931 53.355 C 68.762 57.06 68.143 59.072 67.623 60.412 C 66.933 62.185 66.111 63.451 64.78 64.78 C 63.451 66.111 62.185 66.934 60.412 67.623 C 59.072 68.143 57.06 68.762 53.355 68.931 C 49.349 69.114 48.147 69.152 38 69.152 C 27.853 69.152 26.651 69.114 22.645 68.931 C 18.94 68.762 16.928 68.143 15.588 67.623 C 13.815 66.934 12.549 66.111 11.22 64.78 C 9.89 63.451 9.066 62.185 8.377 60.412 C 7.857 59.072 7.238 57.06 7.069 53.355 C 6.886 49.349 6.848 48.146 6.848 38 C 6.848 27.854 6.886 26.651 7.069 22.645 C 7.238 18.94 7.857 16.928 8.377 15.588 C 9.066 13.815 9.889 12.549 11.22 11.22 C 12.549 9.889 13.815 9.067 15.588 8.377 C 16.928 7.857 18.94 7.238 22.645 7.069 C 26.651 6.886 27.854 6.848 38 6.848 Z M 58.284 13.157 C 55.766 13.157 53.724 15.198 53.724 17.716 C 53.724 20.235 55.766 22.276 58.284 22.276 C 60.802 22.276 62.843 20.235 62.843 17.716 C 62.843 15.198 60.802 13.157 58.284 13.157 Z M 38 18.487 C 27.223 18.487 18.486 27.223 18.486 38 C 18.486 48.777 27.223 57.514 38 57.514 C 48.777 57.514 57.513 48.777 57.513 38 C 57.513 27.223 48.777 18.487 38 18.487 Z M 38 25.333 C 44.996 25.333 50.667 31.004 50.667 38 C 50.667 44.996 44.996 50.667 38 50.667 C 31.004 50.667 25.333 44.996 25.333 38 C 25.333 31.004 31.004 25.333 38 25.333 Z"/>
    </g>

</svg>