<?xml version="1.0" encoding="utf-8"?>
<svg
    xmlns="http://www.w3.org/2000/svg"
    width="80"
    height="80"
    viewBox="0 0 76 76"
    style="shape-rendering: auto">

    <g id="logo_messenger">
        <path style="fill: black" d="M 37.954 0 C 16.681 0.009 -0.345 16.286 0.015 36.858 C -0.302 47.711 4.407 57.467 12.123 64.212 C 12.591 64.65 12.932 65.286 12.961 66.516 L 13.166 73.122 C 13.268 75.191 15.336 76.644 17.599 75.689 L 25.038 72.413 C 25.038 72.413 25.981 71.991 26.777 72.156 C 30.306 73.17 34.058 73.717 37.954 73.717 C 59.591 73.802 76.675 57.384 75.894 36.858 C 76.56 16.169 59.319 -0.009 37.954 0 Z M 59.343 25.766 C 60.587 25.762 61.503 27.054 60.804 28.333 L 49.562 46.084 C 47.682 49.055 43.963 49.303 41.897 47.806 L 32.988 41.173 C 31.968 40.351 30.831 40.012 29.337 41.154 L 17.784 49.898 C 16.13 50.947 14.433 49.403 15.357 47.612 L 26.454 30.058 C 28.823 26.515 32.344 27.048 34.085 28.126 L 43.646 35.216 C 44.337 35.65 45.087 35.935 46.139 35.288 L 58.038 26.251 C 58.478 25.913 58.929 25.768 59.343 25.766 Z"/>
    </g>

</svg>