<?xml version="1.0" encoding="utf-8"?>
<svg
    xmlns="http://www.w3.org/2000/svg"
    width="80"
    height="80"
    viewBox="0 0 76 76"
    style="shape-rendering: auto">

    <g id="logo_ok" transform="matrix(1, 0, 0, 1, 15.987321, 0)">
        <path style="fill: black" d="M 22.011 0 C 32.828 0 41.627 8.798 41.627 19.616 C 41.627 30.43 32.828 39.225 22.011 39.225 C 11.194 39.225 2.396 30.43 2.396 19.616 C 2.396 8.798 11.194 0 22.011 0 Z M 22.011 11.496 C 17.534 11.496 13.888 15.137 13.888 19.616 C 13.888 24.09 17.534 27.734 22.011 27.734 C 26.487 27.734 30.132 24.09 30.132 19.616 C 30.132 15.137 26.487 11.496 22.011 11.496 Z M 38.46 39.896 C 40.304 39.957 42.085 40.904 43.141 42.585 C 44.832 45.27 44.024 48.816 41.34 50.508 C 37.795 52.733 33.942 54.315 29.951 55.225 L 40.915 66.191 C 43.158 68.436 43.158 72.072 40.913 74.317 C 39.79 75.438 38.321 75.999 36.852 75.999 C 35.379 75.999 33.909 75.438 32.787 74.317 L 22.015 63.541 L 11.234 74.317 C 8.993 76.561 5.355 76.561 3.112 74.317 C 0.863 72.072 0.863 68.433 3.112 66.191 L 14.078 55.225 C 10.085 54.315 6.233 52.736 2.687 50.508 C 0.001 48.816 -0.807 45.268 0.885 42.585 C 2.574 39.894 6.121 39.086 8.808 40.778 C 16.843 45.829 27.187 45.827 35.217 40.778 C 36.224 40.143 37.353 39.861 38.46 39.896 Z"/>
    </g>

</svg>