<?xml version="1.0" encoding="utf-8"?>
<svg
    xmlns="http://www.w3.org/2000/svg"
    width="80"
    height="80"
    viewBox="0 0 76 76"
    style="shape-rendering: auto">

    <g id="logo_reddit">
        <path style="fill: black" d="M 38 0 C 17.013 0 0 17.013 0 38 C 0 58.987 17.013 76 38 76 C 58.987 76 76 58.987 76 38 C 76 17.013 58.987 0 38 0 Z M 53.834 15.042 C 56.02 15.042 57.791 16.813 57.791 19.001 C 57.791 21.186 56.02 22.958 53.834 22.958 C 51.712 22.958 49.995 21.286 49.894 19.187 L 41.646 17.434 L 39.123 29.31 C 44.936 29.514 50.154 31.28 53.943 34.014 C 54.939 33.054 56.292 32.459 57.786 32.459 C 60.846 32.459 63.328 34.94 63.328 38.001 C 63.328 40.262 61.971 42.202 60.031 43.064 C 60.115 43.612 60.161 44.167 60.161 44.729 C 60.161 53.254 50.235 60.168 37.994 60.168 C 25.752 60.168 15.826 53.254 15.826 44.729 C 15.826 44.163 15.874 43.604 15.959 43.053 C 14.03 42.185 12.685 40.253 12.685 38.001 C 12.685 34.94 15.167 32.459 18.228 32.459 C 19.715 32.459 21.062 33.049 22.058 34.002 C 25.895 31.239 31.198 29.472 37.097 29.308 L 39.915 16.056 C 39.972 15.799 40.125 15.574 40.345 15.431 C 40.566 15.287 40.835 15.237 41.089 15.293 L 50.3 17.251 C 50.947 15.947 52.278 15.042 53.834 15.042 Z M 29.294 38.001 C 27.109 38.001 25.333 39.776 25.333 41.958 C 25.333 44.141 27.109 45.916 29.294 45.916 C 31.475 45.916 33.25 44.141 33.25 41.958 C 33.25 39.776 31.475 38.001 29.294 38.001 Z M 46.708 38.001 C 44.527 38.001 42.75 39.776 42.75 41.958 C 42.75 44.143 44.527 45.918 46.708 45.918 C 48.891 45.918 50.667 44.143 50.667 41.958 C 50.667 39.776 48.891 38.001 46.708 38.001 Z M 29.331 50.667 C 29.068 50.667 28.806 50.767 28.606 50.967 C 28.205 51.368 28.205 52.017 28.606 52.416 C 31.304 55.117 36.482 55.325 38.005 55.325 C 39.526 55.325 44.704 55.117 47.404 52.418 C 47.806 52.019 47.807 51.369 47.407 50.968 C 47.006 50.568 46.357 50.567 45.956 50.967 C 44.25 52.671 40.607 53.274 38.005 53.274 C 35.404 53.274 31.759 52.671 30.058 50.967 C 29.857 50.767 29.595 50.667 29.331 50.667 Z"/>
    </g>

</svg>