<?xml version="1.0" encoding="utf-8"?>
<svg
    xmlns="http://www.w3.org/2000/svg"
    width="80"
    height="80"
    viewBox="0 0 76 76"
    style="shape-rendering: auto">

    <g id="logo_skype">
        <path style="fill: black" d="M 73.207 44.461 C 73.56 42.434 73.746 40.348 73.746 38.217 C 73.746 18.364 57.741 2.267 37.999 2.267 C 35.88 2.267 33.807 2.451 31.79 2.807 C 28.687 1.018 25.088 0 21.253 0 C 9.515 0 0 9.571 0 21.377 C 0 25.232 1.013 28.851 2.793 31.975 C 2.437 34 2.254 36.086 2.254 38.217 C 2.254 58.07 18.259 74.169 37.999 74.169 C 40.119 74.169 42.192 73.984 44.21 73.627 C 47.314 75.416 50.912 76.436 54.745 76.436 C 66.483 76.436 76 66.865 76 55.058 C 76 51.203 74.983 47.584 73.207 44.461 M 38.146 61.213 C 25.446 61.213 19.643 54.748 19.643 49.997 C 19.643 47.561 21.551 45.885 23.99 45.885 C 29.423 45.885 28.009 54.036 38.146 54.036 C 43.334 54.036 46.372 50.915 46.372 47.987 C 46.372 46.224 45.362 44.265 41.946 43.408 L 30.653 40.545 C 21.559 38.234 19.966 33.173 19.966 28.484 C 19.966 18.743 28.869 15.222 37.356 15.222 C 45.168 15.222 54.457 19.533 54.457 25.379 C 54.457 27.883 52.357 29.246 49.916 29.246 C 45.278 29.246 46.051 22.723 36.71 22.723 C 32.072 22.723 29.628 24.893 29.628 27.944 C 29.628 30.987 33.215 32.02 36.393 32.755 L 44.751 34.64 C 53.907 36.708 56.356 42.076 56.356 47.188 C 56.356 55.103 50.225 61.213 38.146 61.213"/>
    </g>

</svg>