<?xml version="1.0" encoding="utf-8"?>
<svg
    xmlns="http://www.w3.org/2000/svg"
    width="80"
    height="80"
    viewBox="0 0 76 76"
    style="shape-rendering: auto">

    <g id="logo_telegram">
        <path style="fill: black" d="M 38 0 C 17.013 0 0 17.013 0 38 C 0 58.987 17.013 76 38 76 C 58.987 76 76 58.987 76 38 C 76 17.013 58.987 0 38 0 Z M 54.316 22.004 C 55.809 21.949 56.649 22.273 56.437 25.505 C 55.284 35.226 51.747 54.517 51.747 54.517 C 51.024 57.458 49.448 58.542 46.295 56.991 L 33.424 48.301 C 32.229 47.248 31.178 46.167 33.249 44.059 C 37.382 40.087 41.389 36.58 45.617 32.177 C 46.415 31.42 45.594 30.319 44.457 31.172 L 27.182 42.609 C 25.648 43.574 24.092 43.77 22.008 43.394 C 19.635 42.788 17.069 42.129 14.63 41.157 C 12.66 40.371 12.915 38.758 15.415 37.756 C 27.508 32.534 39.229 27.24 51.22 22.723 C 52.334 22.361 53.422 22.036 54.316 22.004 Z"/>
    </g>

</svg>