<?xml version="1.0" encoding="utf-8"?>
<svg
    xmlns="http://www.w3.org/2000/svg"
    width="80"
    height="80"
    viewBox="0 0 76 76"
    style="shape-rendering: auto">

    <g id="logo_tiktok" transform="matrix(1, 0, 0, 1, 4.373, 0)">
        <path style="fill: black; opacity: .4" d="M 33.619 0 L 33.619 49.875 C 33.599 55.689 28.88 60.396 23.057 60.396 C 21.6 60.431 19.923 60.072 18.305 59.27 C 16.904 57.435 16.145 55.188 16.148 52.879 C 16.148 47.048 20.879 42.322 26.713 42.322 C 27.8 42.32 28.882 42.487 29.918 42.816 L 29.918 30.049 C 28.706 29.884 27.485 29.815 26.262 29.84 L 26.262 27.01 C 25.212 26.866 24.154 26.795 23.094 26.797 C 10.339 26.797 0 37.129 0 49.875 C 0 57.865 4.06 64.907 10.232 69.049 C 10.234 69.051 10.239 69.054 10.24 69.055 C 14.434 73.339 20.279 75.996 26.748 75.996 C 39.503 75.996 49.844 65.662 49.844 52.914 L 49.844 27.434 C 54.751 30.939 60.763 33.002 67.254 33.002 L 67.254 20.514 C 66.025 20.515 64.8 20.387 63.598 20.133 L 63.598 17.475 C 60.331 17.481 57.127 16.566 54.354 14.836 C 54.574 15.077 54.572 15.076 54.352 14.836 C 54.352 14.836 54.353 14.836 54.354 14.836 C 51.846 12.097 50.2 8.558 49.844 4.646 L 49.844 3.039 L 46.379 3.039 C 46.295 2.564 46.231 2.086 46.186 1.605 L 46.186 0 L 33.619 0 Z"/>
        <path style="fill: black" d="M 46.186 24.393 C 51.094 27.899 57.105 29.962 63.597 29.962 L 63.597 20.132 C 59.973 19.361 56.765 17.468 54.352 14.836 C 50.225 12.26 47.25 8.012 46.378 3.04 L 37.276 3.04 L 37.276 52.915 C 37.256 58.729 32.535 63.437 26.713 63.437 C 23.281 63.437 20.234 61.803 18.304 59.27 C 14.857 57.532 12.493 53.962 12.493 49.839 C 12.493 44.008 17.222 39.282 23.056 39.282 C 24.174 39.282 25.251 39.455 26.262 39.776 L 26.262 29.839 C 13.733 30.099 3.655 40.331 3.655 52.915 C 3.655 59.197 6.165 64.892 10.237 69.053 C 13.912 71.519 18.335 72.957 23.093 72.957 C 35.847 72.957 46.186 62.623 46.186 49.876 Z"/>
    </g>

</svg>