<?xml version="1.0" encoding="utf-8"?>
<svg
    xmlns="http://www.w3.org/2000/svg"
    width="80"
    height="80"
    viewBox="0 0 76 76"
    style="shape-rendering: auto">

    <g id="logo_twitter" transform="matrix(1, 0, 0, 1, 0, 7.119347)">
        <path style="fill: black" d="M 23.9 61.761 C 52.58 61.761 68.266 38.001 68.266 17.396 C 68.266 16.721 68.266 16.049 68.22 15.38 C 71.272 13.173 73.906 10.44 76 7.309 C 73.155 8.57 70.136 9.397 67.044 9.763 C 70.299 7.814 72.735 4.749 73.899 1.138 C 70.838 2.954 67.49 4.234 63.998 4.923 C 55.768 -3.829 41.149 -0.389 37.684 11.115 C 36.899 13.723 36.809 16.491 37.425 19.143 C 24.888 18.515 13.207 12.593 5.29 2.853 C 1.151 9.977 3.265 19.091 10.117 23.667 C 7.636 23.594 5.209 22.925 3.04 21.715 C 3.04 21.779 3.04 21.846 3.04 21.913 C 3.042 29.336 8.274 35.728 15.55 37.198 C 13.254 37.824 10.846 37.916 8.509 37.466 C 10.552 43.817 16.406 48.169 23.077 48.294 C 17.555 52.633 10.735 54.99 3.711 54.983 C 2.472 54.98 1.232 54.905 0 54.757 C 7.13 59.334 15.428 61.761 23.9 61.749"/>
    </g>

</svg>