<?xml version="1.0" encoding="utf-8"?>
<svg
    xmlns="http://www.w3.org/2000/svg"
    width="80"
    height="80"
    viewBox="0 0 76 76"
    style="shape-rendering: auto">

    <g id="logo_yahoo" transform="matrix(1, 0, 0, 1, 0, 2.761501)">
        <path style="fill: black" d="M 59.702 0 L 45.131 35.227 L 61.429 35.227 L 76 0 Z M 32.75 17.212 L 23.546 39.387 L 14.915 17.231 L 0 17.231 L 16.537 56.277 L 10.643 70.477 L 25.209 70.477 L 47.316 17.212 Z M 49.429 38.585 C 47.167 38.583 44.884 39.417 43.082 41.083 C 39.363 44.521 39.106 50.304 42.506 54.001 C 45.908 57.697 51.68 57.8 55.399 54.361 C 59.117 50.923 59.375 45.139 55.974 41.443 C 54.22 39.538 51.837 38.587 49.429 38.585 Z"/>
    </g>

</svg>