<?xml version="1.0" encoding="utf-8"?>
<svg
    xmlns="http://www.w3.org/2000/svg"
    width="80"
    height="80"
    viewBox="0 0 76 76"
    style="shape-rendering: auto">

    <g id="logo_youtube" transform="matrix(1, 0, 0, 1, 0, 11.227)">
        <path style="fill: black" d="M 38 0 C 38 0 14.234 0 8.308 1.599 C 5.037 2.478 2.462 5.07 1.588 8.361 C 0 14.326 0 26.773 0 26.773 C 0 26.773 0 39.219 1.588 45.184 C 2.462 48.476 5.037 51.067 8.308 51.948 C 14.234 53.547 38 53.546 38 53.546 C 38 53.546 61.766 53.547 67.692 51.948 C 70.963 51.067 73.538 48.476 74.411 45.184 C 76 39.219 76 26.773 76 26.773 C 76 26.773 76 14.326 74.411 8.361 C 73.538 5.07 70.963 2.478 67.692 1.599 C 61.766 0 38 0 38 0 Z M 30.227 15.473 L 50.092 26.773 L 30.227 38.073 Z"/>
    </g>

</svg>