<?xml version="1.0" encoding="utf-8" standalone="no"?>
<svg
    xmlns="http://www.w3.org/2000/svg"
    xmlns:cc="http://creativecommons.org/ns#"
    xmlns:dc="http://purl.org/dc/elements/1.1/"
    xmlns:rdf="http://www.w3.org/1999/02/22-rdf-syntax-ns#"
    width="350"
    height="100"
    viewBox="0 0 350 100"
    style="shape-rendering: auto">

    <metadata>
        <rdf:RDF>
            <cc:Work>
                <dc:format>image/svg+xml</dc:format>
                <dc:type rdf:resource="http://purl.org/dc/dcmitype/StillImage"/>
                <dc:rights><cc:Agent><dc:title>Copyright © 2017—2024 Maxim Rysevets. All rights reserved.</dc:title></cc:Agent></dc:rights>
                <dc:creator><cc:Agent><dc:title>Maxim Rysevets</dc:title></cc:Agent></dc:creator>
            </cc:Work>
        </rdf:RDF>
    </metadata>

    <g id="icon_button_l_1">
        <path style="fill: none; stroke: white; stroke-linejoin: round" d="m 44.951172,17.470703 a 2.50025,2.50025 0 0 0 -2.03125,1.142578 l -20,30 a 2.50025,2.50025 0 0 0 0,2.773438 l 20,30 a 2.50025,2.50025 0 1 0 4.160156,-2.773438 L 28.003906,50 47.080078,21.386719 a 2.50025,2.50025 0 0 0 -2.128906,-3.916016 z"/>
    </g>

    <g id="icon_button_l_2">
        <path style="fill: none; stroke: white; stroke-width: 5px; stroke-linecap: round; stroke-linejoin: round" d="M 115 20 L 95 50 L 115 80"/>
    </g>

    <g id="icon_button_r_1">
        <path style="fill: none; stroke: white; stroke-width: 5px; stroke-linecap: round; stroke-linejoin: round" d="M 165 20 L 185 50 L 165 80"/>
    </g>

    <g id="icon_button_r_2">
        <path style="fill: none; stroke: white; stroke-linejoin: round" d="m 234.97266,17.470703 a 2.50025,2.50025 0 0 0 -2.05274,3.916016 L 251.99609,50 232.91992,78.613281 a 2.50025,2.50025 0 1 0 4.16016,2.773438 l 20,-30 a 2.50025,2.50025 0 0 0 0,-2.773438 l -20,-30 a 2.50025,2.50025 0 0 0 -2.10742,-1.142578 z"/>
    </g>

    <g id="icon_button_close_1" transform="rotate(45,315,25)">
        <path style="fill: none; stroke: white; stroke-width: 5px; stroke-linecap: round; stroke-linejoin: round" d="M 332.5 25 L 297.5 25"/>
        <path style="fill: none; stroke: white; stroke-width: 5px; stroke-linecap: round; stroke-linejoin: round" d="M 315 42.5 L 315 7.5"/>
    </g>

    <g id="icon_button_close_2">
        <path style="fill: none; stroke: white; stroke-linejoin: round" d="m 302.59961,60.099609 a 2.50025,2.50025 0 0 0 -1.74219,4.292969 L 311.46484,75 300.85742,85.607422 a 2.50025,2.50025 0 1 0 3.53516,3.535156 L 315,78.535156 325.60742,89.142578 a 2.50025,2.50025 0 1 0 3.53516,-3.535156 L 318.53516,75 329.14258,64.392578 a 2.50025,2.50025 0 0 0 -0.002,-3.585937 2.50025,2.50025 0 0 0 -3.5332,0.05078 L 315,71.464844 304.39258,60.857422 a 2.50025,2.50025 0 0 0 -1.79297,-0.757813 z"/>
    </g>

</svg>